<svg width="82" height="40" viewBox="0 0 82 40" fill="none" xmlns="http://www.w3.org/2000/svg">
    <path
        d="M42.55 34.6788C40.9649 34.5732 39.1372 34.2953 37.6956 33.8778C37.4256 33.7995 36.3075 33.3886 36.0231 33.2581C31.0044 30.9334 27.5081 25.8585 27.5081 19.9709C27.5081 11.8955 34.078 5.31775 42.1586 5.31775C50.1675 5.31775 56.6931 11.7833 56.8053 19.7674H62.098C61.9858 8.86623 53.0872 0.0315514 42.1586 0.0315514C31.1649 0.0315514 22.2167 8.97451 22.2167 19.9709C22.2167 27.5519 26.4801 34.1452 32.7225 37.5137C33.8497 38.1099 35.4674 38.7244 36.0166 38.8926C37.7961 39.4223 39.98 39.7746 41.9238 39.922C42.5839 39.9715 44.8891 39.9976 45.561 40.0002H82.0086V34.7284H45.6223C45.1383 34.7284 43.0236 34.7101 42.55 34.6788ZM45.6223 26.4012C45.2375 26.4012 43.2245 26.3882 42.8527 26.3569C42.2225 26.3034 41.3093 26.2094 40.7223 26.0751C40.0595 25.8976 39.4373 25.6628 39.1568 25.5089C37.1908 24.4456 35.8509 22.3661 35.8509 19.9709C35.8509 16.4863 38.6728 13.6606 42.1586 13.6606C45.5714 13.6606 48.3463 16.3754 48.4572 19.7674H53.5425C53.4355 13.5706 48.3841 8.57661 42.1586 8.57661C35.864 8.57661 30.7617 13.6776 30.7617 19.9709C30.7617 24.4091 33.3057 28.242 37.0107 30.1193C37.5808 30.4533 38.6532 30.8029 38.9585 30.8825C40.0048 31.1577 41.4098 31.3456 42.55 31.4291C42.9714 31.4643 45.0352 31.48 45.471 31.4826V31.4904H82.0073V26.4012H45.6223ZM18.9552 39.9807H13.6273V5.32949H5.84148V0.000240326H18.9552V39.9807ZM-0.00830078 7.99216V13.1166H5.84148V39.9807H10.9607V7.99216H-0.00830078Z"
        fill="#D91920" />
    <path
        d="M72.5941 0.372126C70.6751 0.372126 69.0835 1.90241 69.0835 3.82276C69.0835 5.74312 70.6751 7.33472 72.5941 7.33472C74.5719 7.33472 76.1022 5.74312 76.1022 3.82276C76.1022 1.90241 74.5719 0.372126 72.5941 0.372126ZM72.5941 6.76853C71.0091 6.76853 69.6432 5.52264 69.6432 3.82276C69.6432 2.20899 71.0091 0.931795 72.5941 0.931795C74.1779 0.931795 75.5373 2.20899 75.5373 3.82276C75.5373 5.52264 74.1779 6.76853 72.5941 6.76853Z"
        fill="#D91920" />
    <path
        d="M73.9309 4.76852C73.9309 4.38106 73.8735 4.02099 73.4299 3.87879C73.9857 3.68571 74.0405 3.32173 74.0405 3.10126C74.0405 2.21022 73.2316 2.09673 72.8989 2.09673H71.3687V5.54736H72.0066V4.13188H72.5089C73.2316 4.13188 73.2916 4.46455 73.2916 4.76852C73.2916 5.35689 73.2916 5.46778 73.4299 5.54736H74.0692C73.9309 5.40777 73.9857 5.29949 73.9309 4.76852ZM72.7593 3.62831H72.0066V2.54159H72.6511C73.0972 2.54159 73.3999 2.68249 73.3999 3.10126C73.3999 3.32173 73.2916 3.62831 72.7593 3.62831Z"
        fill="#D91920" />
</svg>