<svg width="130" height="45" viewBox="0 0 130 45" fill="none" xmlns="http://www.w3.org/2000/svg">
<g clip-path="url(#clip0_4255_15447)">
<path d="M86.5472 0.263672L90.5043 0.266061C90.5018 2.15481 90.5942 19.0138 90.447 19.2305L90.0816 19.2139L86.5412 19.219C86.6173 16.6599 86.5523 13.764 86.554 11.1777L78.8434 11.1827L78.8493 19.2192C77.6615 19.2042 75.8926 19.1672 74.751 19.2704C74.8194 17.4722 74.7621 15.296 74.7612 13.4745L74.7741 0.276805C76.1117 0.253266 77.5032 0.270664 78.8451 0.268617C78.8331 2.77603 78.8365 5.28362 78.8545 7.79103C81.3791 7.74208 84.0243 7.77824 86.5583 7.77465C86.5155 5.3046 86.5489 2.74106 86.5472 0.263672Z" fill="#0076C0"/>
<path d="M59.5079 0.269321L71.3175 0.263184C71.2995 1.40431 71.2995 2.54544 71.3157 3.68657L63.3574 3.69749L63.3603 7.77894L70.6653 7.77706C70.6628 8.93133 70.6585 10.0259 70.7158 11.1786L63.3528 11.1865L63.3655 15.9613L71.3183 15.962L71.3089 19.2695C70.1476 19.157 68.2734 19.2146 67.0676 19.2155L59.4922 19.2168C59.4956 18.9323 59.4881 18.1346 59.5166 17.8876C59.4518 16.3678 59.5019 14.4823 59.5014 12.9207C59.4905 10.3316 59.4964 7.74261 59.5192 5.15366C59.4699 3.54909 59.51 1.88072 59.5079 0.269321Z" fill="#0076C0"/>
<path d="M59.5192 5.15381C59.7087 5.70493 59.7325 17.3627 59.5166 17.8877C59.4518 16.3679 59.5019 14.4824 59.5014 12.9206C59.4905 10.3317 59.4964 7.74258 59.5192 5.15381Z" fill="#016EBA"/>
<path d="M105.286 0.268584L109.479 0.257324C108.043 3.39671 106.631 6.54718 105.245 9.7084C104.226 11.9226 102.337 17.175 100.631 18.528C99.044 19.7873 97.2691 19.4042 95.4325 19.1752C95.4283 17.9793 95.4548 16.7553 95.4676 15.5572C97.1929 16.2732 98.3525 16.2517 99.2947 14.5317C98.8899 13.2873 97.679 10.7955 97.1013 9.51071C95.7329 6.46752 94.3457 3.26452 92.8994 0.266538L97.1629 0.273701C98.2447 3.1533 100.073 7.30384 101.36 10.1486C101.629 9.26252 102.09 8.22237 102.424 7.34324C103.325 4.97877 104.402 2.63391 105.286 0.268584Z" fill="#0076C0"/>
<path d="M13.9802 0.113241C15.4275 -0.0346455 17.2878 0.0131122 18.7758 0.0136239L26.0096 0.0127702L34.2796 0.0124319C35.8818 0.0126024 37.818 -0.042492 39.3812 0.0779321C40.5402 2.06646 41.8725 4.07495 43.0811 6.04762C46.3209 11.336 49.7318 16.5566 52.9533 21.8532C55.178 21.7945 57.6129 21.8401 59.8487 21.8399H72.6982L111.471 21.8418L124.745 21.8452C125.725 21.8453 129.7 21.905 130.374 21.7635L130.369 23.2829L87.8713 23.2887L74.29 23.2891C71.8861 23.2889 69.2656 23.2359 66.884 23.3051C65.3846 23.2379 63.4993 23.2898 61.9771 23.2894L52.8535 23.2848C50.6004 27.1367 47.9789 31.0812 45.6291 34.9062C44.2778 37.1194 42.913 39.3232 41.5347 41.5193C40.849 42.6178 39.9835 44.1009 39.2382 45.1218L14.05 45.1295L0 22.485C2.23549 18.6517 4.87833 14.6567 7.24065 10.855L11.6377 3.81722C12.3973 2.60718 13.1738 1.2774 13.9802 0.113241ZM1.76515 22.478L14.9629 43.7922C21.452 43.7172 27.9507 43.8016 34.4404 43.7717C35.2005 43.7683 37.7719 43.8638 38.341 43.718C39.5535 42.0455 41.0835 39.4238 42.2036 37.6183L48.349 27.7183C49.3816 26.057 50.5117 24.1448 51.5861 22.5331L42.8329 8.4486C41.5472 6.39866 39.5883 3.49637 38.4489 1.45343C30.704 1.45513 22.6241 1.57027 14.906 1.44865L5.18282 16.9944C4.08844 18.7549 2.79175 20.7138 1.76515 22.478Z" fill="#0076C0"/>
<path d="M21.5898 9.79158C22.247 7.95059 23.1917 5.72735 25.0828 4.83117C25.9043 4.4438 26.8503 4.41343 27.6952 4.74741C29.8249 5.58441 30.8135 8.1517 31.6432 10.0781C33.6251 8.15408 38.608 5.50186 40.6273 8.8188C41.2561 9.85162 41.3374 11.0685 41.0198 12.2158L41.5009 12.531C41.9796 13.0376 42.2441 13.405 42.215 14.1533C42.1973 14.6681 41.9589 15.1506 41.5601 15.4783C41.3025 15.6918 41.0199 15.8025 40.7088 15.909L40.1262 16.0412C39.8597 16.6501 39.6024 17.2787 39.2635 17.8491C41.2683 18.3492 44.0792 19.3293 45.2234 21.1993C45.6922 21.9732 45.8175 22.9062 45.5695 23.7758C44.8732 26.2837 41.1843 27.7165 38.9707 28.4739C40.4911 31.1288 43.0331 36.5803 39.454 38.75C37.4458 39.967 33.3565 38.6016 31.654 37.3376C29.1799 43.2693 23.8155 43.0083 21.4215 37.2251C19.0881 38.6067 14.6096 40.7636 12.6793 37.3999C11.1675 34.7663 12.8881 30.8704 14.2829 28.479C13.9597 28.3255 13.3549 28.0619 13.0826 27.8709C12.9785 27.9945 12.858 28.137 12.7409 28.247C12.3065 28.6538 11.7205 28.8593 11.1262 28.8133C9.92043 28.7127 9.28731 27.7387 9.38111 26.5882C8.69049 25.795 7.88297 24.9507 7.61904 23.9127C6.67374 20.1929 11.2741 18.582 14.0169 17.8475C12.8683 15.4892 11.1824 11.3627 12.7173 8.86128C13.1832 8.0879 13.9495 7.54139 14.8344 7.35154C17.2696 6.82772 19.6735 8.52627 21.5898 9.79158ZM33.2711 16.6315C34.7061 16.8084 36.5976 17.1086 37.9725 17.534C38.3567 16.9334 38.6944 16.3499 39.0496 15.7336C38.615 15.437 38.4894 15.234 38.2491 14.7793C38.086 14.154 38.0937 13.9825 38.1637 13.3321C38.6712 12.5328 38.8895 12.3051 39.8061 12.0945C40.0048 10.5088 39.8436 8.7591 37.8523 8.59501C35.7577 8.42222 33.6514 10.0737 32.0499 11.2353C32.6046 13.2155 32.8843 14.592 33.2711 16.6315ZM13.3876 26.8841C13.8663 27.0172 14.0938 27.2969 14.6945 27.4044C15.1111 27.2833 16.8701 24.7852 17.3918 24.1746C16.5528 22.9824 15.1065 20.2425 14.4422 18.9491C12.6894 19.5956 9.31299 20.4462 8.83255 22.6585C8.60114 23.7246 9.38607 24.6778 9.96767 25.511C11.5209 24.4671 13.0297 25.0266 13.3876 26.8841ZM15.1144 17.5644C16.1504 17.3273 17.2198 17.0588 18.2698 16.9125C18.8249 16.8135 19.381 16.7202 19.9379 16.6327C20.2308 15.0118 20.6916 12.6432 21.1987 11.0639C19.7539 10.0435 17.4964 8.45412 15.6229 8.55459C11.384 9.28822 14.2228 15.24 15.1144 17.5644ZM21.0214 36.1061C20.1794 33.6968 19.8746 32.4482 19.4281 29.9305C18.4013 29.7651 16.3337 29.3992 15.4651 28.8807C14.2131 30.9531 12.9699 33.6405 13.4798 36.1155C13.9502 38.3986 16.6428 38.0413 18.2803 37.405C19.2874 37.0016 20.0564 36.6025 21.0214 36.1061ZM25.0109 17.3324C23.9675 18.2388 21.1321 21.2856 20.4103 22.3858C20.3076 23.5056 20.31 24.6257 20.2938 25.7498C20.6982 26.4517 22.7201 28.7127 23.338 29.2457C24.9621 29.2781 26.5412 29.3361 28.1641 29.2679L29.5688 29.2158C30.5374 28.5208 32.5196 26.108 33.077 25.0547C32.9596 24.1916 32.966 23.2564 32.9817 22.3834C31.9861 21.0359 29.5065 18.5213 28.2844 17.3041C27.2505 17.3111 26.0291 17.2881 25.0109 17.3324ZM27.5582 14.8972C27.9592 15.3394 28.4573 15.96 29.0485 16.1068C30.0772 16.1851 31.1015 16.3132 32.1177 16.4903C31.9659 15.8808 31.1563 12.1482 30.998 11.9462C29.8588 12.9079 28.6649 13.8998 27.5582 14.8972ZM33.5083 17.8035C33.8411 19.5804 33.8147 21.4563 34.8203 22.812L35.9304 21.2015C36.4675 20.3302 36.9974 19.4545 37.5199 18.5747C36.4055 18.3591 34.5575 18.0718 33.5083 17.8035ZM33.5731 29.8546C33.1847 32.1267 32.7972 34.0328 32.1239 36.2392C33.0714 36.7219 33.9734 37.2123 35.0034 37.5005C43.7121 40.3167 38.4842 29.2133 37.6932 28.9395C36.3396 29.3276 34.9637 29.6329 33.5731 29.8546ZM29.0112 34.368C29.7535 34.895 30.2483 35.22 31.0384 35.6635C31.3002 34.7688 32.4323 30.8576 32.2089 30.148H31.94C31.4358 30.2069 30.8794 30.2819 30.3786 30.3229C29.689 30.8371 28.2052 32.2913 27.3802 33.006C27.9623 33.5441 28.3791 33.8878 29.0112 34.368ZM17.512 28.334C18.1805 28.508 18.6335 28.6018 19.3158 28.7135C19.2009 27.8956 19.1405 27.3251 19.1029 26.5012C18.7715 26.0287 18.4239 25.546 18.1105 25.0633C17.5405 25.8385 16.5754 27.2764 15.9847 27.9135C16.4907 28.0517 17.0093 28.1873 17.512 28.334ZM33.806 28.6342C34.4374 28.496 35.2543 28.3408 35.8609 28.1626C36.2551 28.0585 36.7217 27.9238 37.1131 27.8342C36.6479 27.1613 35.4541 25.3959 34.9023 24.9524C33.9809 26.2846 33.9198 27.0624 33.806 28.6342ZM20.3343 27.6978L20.543 29.0845C20.9058 29.0913 21.2762 29.0768 21.6261 29.1604C21.4197 28.919 20.5375 27.8606 20.3343 27.6978ZM32.293 17.6782C31.5669 17.5792 30.7043 17.4837 29.9977 17.3362C30.3053 17.6689 32.3416 19.7568 32.6553 19.9809C32.5418 19.2324 32.4347 18.4167 32.293 17.6782ZM26.5174 32.2264L27.7073 31.1518L28.5273 30.4405C26.9848 30.5199 25.973 30.4968 24.4084 30.4474C25.1362 31.0393 25.8218 31.5945 26.5174 32.2264ZM38.7151 18.938C37.7354 20.7033 36.7612 22.2219 35.6483 23.9102C36.5991 25.0471 37.4975 26.2274 38.3403 27.4462C39.1049 27.1536 39.9001 26.8645 40.6453 26.5319C47.2672 23.3048 44.1325 20.3723 38.7151 18.938ZM20.9467 17.6649C20.8567 18.1861 20.6044 19.671 20.6479 20.1602C20.7598 20.1153 20.729 20.1494 20.7681 20.0926C21.0378 19.7523 23.0914 17.4992 23.1126 17.4032L22.9241 17.4406C22.3564 17.5142 21.4933 17.6507 20.9467 17.6649ZM32.7755 27.3694C32.5086 27.8334 31.5423 28.8611 31.5642 29.099L32.587 28.9037C32.6635 28.5011 32.8398 27.7481 32.7755 27.3694ZM30.5668 10.6644C29.818 8.90682 28.7327 6.13212 26.5655 5.82816C24.3172 6.20496 23.1278 8.56568 22.6417 10.5909C23.8118 11.5577 25.5774 13.0108 26.6268 14.1199C27.9414 12.9148 29.2575 11.8304 30.5668 10.6644ZM20.7073 30.1574C21.0871 32.0712 21.4019 33.62 22.0641 35.4665C22.761 34.9948 23.3688 34.5786 24.0387 34.0627C24.526 33.7113 25.0684 33.3369 25.5333 32.965C24.5637 32.1744 23.7469 31.3412 22.8415 30.4823C22.1399 30.3749 21.4078 30.2504 20.7073 30.1574ZM25.6959 14.9009C25.1778 14.3844 22.8201 12.225 22.2609 11.9043C21.7322 13.5259 21.5456 14.9471 21.1114 16.4816C21.9638 16.3537 23.4848 16.1406 24.3276 16.1097C24.8079 15.7906 25.2748 15.307 25.6959 14.9009ZM17.235 21.5449C17.5344 22.0342 17.8663 22.6068 18.1803 23.0783C18.5202 22.651 18.8677 22.2297 19.2225 21.8147C19.2851 21.2646 19.7302 18.0526 19.6033 17.8598C18.2726 18.1866 16.8504 18.3292 15.6289 18.6385C16.0592 19.4813 16.7154 20.759 17.235 21.5449ZM26.7514 40.3286C28.8823 40.0583 29.7035 38.5794 30.6137 36.8387C29.6912 36.2724 28.9821 35.8221 28.1114 35.1663C27.7896 34.924 26.5852 33.9339 26.3425 33.8C25.0645 34.8208 23.8773 35.7744 22.4682 36.6187C23.383 38.4515 24.3954 40.3193 26.7514 40.3286Z" fill="#0076C0"/>
<path d="M39.8068 12.0947C40.1587 12.1195 40.6921 12.1389 41.0205 12.216L41.5016 12.5312C41.9804 13.0378 42.2448 13.4052 42.2157 14.1535C42.1981 14.6683 41.9596 15.1509 41.5608 15.4785C41.3033 15.6921 41.0207 15.8028 40.7095 15.9092L40.1269 16.0414C39.7719 15.952 39.4032 15.8371 39.0503 15.7339C38.6157 15.4373 38.4901 15.2343 38.2498 14.7795C38.0867 14.1542 38.0944 13.9828 38.1644 13.3324C38.6719 12.5331 38.8903 12.3054 39.8068 12.0947Z" fill="#EB020A"/>
<path d="M9.96872 25.511C11.522 24.4671 13.0307 25.0266 13.3886 26.8841C13.2904 27.2654 13.2233 27.5033 13.0836 27.8709C12.9796 27.9946 12.8591 28.137 12.742 28.247C12.3076 28.6538 11.7215 28.8594 11.1273 28.8133C9.92148 28.7127 9.28837 27.7387 9.38217 26.5882L9.96872 25.511Z" fill="#EB020A"/>
<path d="M26.5284 18.6235C26.7973 19.5223 27.0146 19.9924 27.4952 20.8033C28.1066 21.5903 28.6369 22.2015 29.55 22.6634C30.2546 23.1282 30.8828 23.4333 31.7167 23.5925C31.399 23.6996 31.0776 23.8036 30.7643 23.923C28.4991 24.822 27.3296 26.0663 26.5089 28.3716L26.4652 28.4313C25.9305 27.4982 25.9531 26.9584 25.0335 25.9187C24.1856 24.961 22.7235 23.8659 21.4219 23.7583C21.9448 23.4792 22.4656 23.1966 22.9845 22.9102C24.1845 22.4254 25.1442 21.3435 25.7879 20.2544C26.0791 19.7184 26.2923 19.1847 26.5284 18.6235Z" fill="#EB020A"/>
<path d="M88.7797 25.3381L92.8824 25.333L92.8867 27.1283L92.8875 44.6162L88.7908 44.6179C88.7908 42.0192 88.7344 39.2065 88.7951 36.6266L88.7575 36.4501C88.1695 36.3887 86.8876 36.4228 86.2534 36.4228L81.3224 36.4245C81.307 37.8641 81.2993 39.3037 81.2993 40.7442C81.2993 41.2278 81.271 42.5318 81.3284 42.954C81.2847 43.4316 81.3018 44.1164 81.3001 44.6111L77.141 44.6145L77.1367 27.2221L77.1436 25.3356L81.3053 25.3449C81.3027 26.5867 81.2573 28.1978 81.3258 29.4054C81.2496 29.912 81.3036 32.0834 81.3087 32.6727L88.7849 32.6625L88.7866 27.0174L88.7797 25.3381Z" fill="#EB020A"/>
<path d="M63.9351 25.3345L68.5991 25.3447L68.9877 26.4458C71.0227 32.4746 73.2213 38.5845 75.1725 44.6168C73.7262 44.616 72.2636 44.604 70.8182 44.6202C70.309 43.0962 69.8255 41.5636 69.3685 40.0225C68.2637 40.0915 64.0541 40.1291 63.0031 40.0267C62.6333 41.1849 61.9343 43.6079 61.5019 44.616C60.3225 44.616 58.9943 44.5861 57.827 44.6262C57.6036 44.6219 57.5937 44.6288 57.382 44.5674C57.3039 44.3226 57.4647 44.0582 57.5713 43.7665C57.7649 43.306 57.9477 42.7107 58.1056 42.2297C59.7244 37.301 61.568 32.4141 63.15 27.4752C63.3906 26.9396 63.7229 25.9221 63.9351 25.3345ZM63.8606 36.9368C64.612 36.8396 65.6005 36.8728 66.3758 36.8754C66.9971 36.8762 67.8512 36.8515 68.4545 36.8916C68.2389 36.182 66.3082 29.7242 66.1131 29.5596C65.3865 32.026 64.5744 34.4831 63.8606 36.9368Z" fill="#EB020A"/>
<path d="M113.398 27.4533C117.011 23.8729 123.268 24.3838 126.231 28.5279C127.945 31.1572 128.217 33.7474 127.942 36.8663C127.439 42.5378 122.789 45.9953 117.188 44.7612C115.282 44.3416 113.688 43.2824 112.636 41.5903C112.424 41.2534 112.226 40.9088 112.041 40.5566C113.163 39.9485 114.281 39.3311 115.393 38.7059C116.432 40.9779 118.893 41.9673 121.218 40.8824C122.641 40.218 123.262 38.908 123.56 37.4462L123.71 36.4382C121.968 36.4288 118.635 36.3247 117.015 36.4697C116.923 36.1482 116.992 33.4932 116.999 33.0173L123.656 33.0156C123.605 32.7666 123.551 32.5184 123.491 32.2719C122.886 29.7782 120.933 28.179 118.223 28.8127C116.954 29.1095 116.262 30.0289 115.648 31.1035C114.528 30.4732 113.409 29.8293 112.226 29.327C112.614 28.5407 112.871 28.1449 113.398 27.4533Z" fill="#EB020A"/>
<path d="M98.0424 27.0847C101.53 24.278 106.329 24.3615 109.618 27.448C110.64 28.8561 110.968 29.3422 111.483 30.9908C110.348 31.3789 108.964 31.7013 107.774 32.0629C107.271 30.7947 106.726 29.6774 105.406 29.0455C104.405 28.5781 103.258 28.5303 102.222 28.9116C99.3826 29.952 99.2354 33.7831 99.4023 36.27C99.5469 38.9097 100.985 41.4734 104.016 41.313C106.295 41.1928 107.09 39.939 107.81 37.9911C109.054 38.3604 110.287 38.7655 111.507 39.2047C110.207 42.6955 108.109 44.7338 104.275 44.9718C98.4301 45.3343 95.1079 40.7987 95.1738 35.3319C95.2157 31.8531 95.5675 29.6783 98.0424 27.0847Z" fill="#EB020A"/>
</g>
<defs>
<clipPath id="clip0_4255_15447">
<rect width="130" height="45" fill="white"/>
</clipPath>
</defs>
</svg>
