<svg width="40" height="40" viewBox="0 0 40 40" fill="none" xmlns="http://www.w3.org/2000/svg">
<g clip-path="url(#clip0_6334_700)">
<path d="M31.92 0H8.08C3.615 0 0 3.615 0 8.08V31.925C0 36.385 3.615 40 8.08 40H31.925C36.385 40 40.005 36.385 40.005 31.92V8.08C40 3.615 36.385 0 31.92 0Z" fill="url(#paint0_linear_6334_700)"/>
<path d="M19.8301 9.18983L20.6401 7.78983C21.1401 6.91483 22.2551 6.61983 23.1301 7.11983C24.0051 7.61983 24.3001 8.73483 23.8001 9.60983L15.9951 23.1198H21.6401C23.4701 23.1198 24.4951 25.2698 23.7001 26.7598H7.15008C6.14008 26.7598 5.33008 25.9498 5.33008 24.9398C5.33008 23.9298 6.14008 23.1198 7.15008 23.1198H11.7901L17.7301 12.8248L15.8751 9.60483C15.3751 8.72983 15.6701 7.62483 16.5451 7.11483C17.4201 6.61483 18.5251 6.90983 19.0351 7.78483L19.8301 9.18983ZM12.8101 28.6348L11.0601 31.6698C10.5601 32.5448 9.44508 32.8398 8.57008 32.3398C7.69508 31.8398 7.40008 30.7248 7.90008 29.8498L9.20008 27.5998C10.6701 27.1448 11.8651 27.4948 12.8101 28.6348ZM27.8801 23.1298H32.6151C33.6251 23.1298 34.4351 23.9398 34.4351 24.9498C34.4351 25.9598 33.6251 26.7698 32.6151 26.7698H29.9851L31.7601 29.8498C32.2601 30.7248 31.9651 31.8298 31.0901 32.3398C30.2151 32.8398 29.1101 32.5448 28.6001 31.6698C25.6101 26.4848 23.3651 22.6048 21.8751 20.0198C20.3501 17.3898 21.4401 14.7498 22.5151 13.8548C23.7101 15.9048 25.4951 18.9998 27.8801 23.1298Z" fill="white"/>
</g>
<defs>
<linearGradient id="paint0_linear_6334_700" x1="20.0025" y1="0" x2="20.0025" y2="40" gradientUnits="userSpaceOnUse">
<stop stop-color="#18BFFB"/>
<stop offset="1" stop-color="#2072F3"/>
</linearGradient>
<clipPath id="clip0_6334_700">
<rect width="40" height="40" fill="white"/>
</clipPath>
</defs>
</svg>
