<svg width="57" height="56" viewBox="0 0 57 56" fill="none" xmlns="http://www.w3.org/2000/svg">
<rect x="0.702637" width="56" height="56" rx="28" fill="#1677FF"/>
<path d="M32.7028 14.6667H20.7028C19.9956 14.6667 19.3173 14.9477 18.8172 15.4478C18.3171 15.9479 18.0361 16.6262 18.0361 17.3334V38.6667C18.0361 39.374 18.3171 40.0523 18.8172 40.5524C19.3173 41.0525 19.9956 41.3334 20.7028 41.3334H36.7028C37.41 41.3334 38.0883 41.0525 38.5884 40.5524C39.0885 40.0523 39.3695 39.374 39.3695 38.6667V21.3334L32.7028 14.6667Z" stroke="white" stroke-width="2" stroke-linecap="round" stroke-linejoin="round"/>
<path d="M31.3691 14.6667V20.0001C31.3691 20.7073 31.6501 21.3856 32.1502 21.8857C32.6503 22.3858 33.3286 22.6667 34.0358 22.6667H39.3691" stroke="white" stroke-width="2" stroke-linecap="round" stroke-linejoin="round"/>
<path d="M26.0358 24H23.3691" stroke="white" stroke-width="2" stroke-linecap="round" stroke-linejoin="round"/>
<path d="M34.0358 29.3333H23.3691" stroke="white" stroke-width="2" stroke-linecap="round" stroke-linejoin="round"/>
<path d="M34.0358 34.6667H23.3691" stroke="white" stroke-width="2" stroke-linecap="round" stroke-linejoin="round"/>
</svg>
