<svg width="132" height="40" viewBox="0 0 132 40" fill="none" xmlns="http://www.w3.org/2000/svg">
<path fill-rule="evenodd" clip-rule="evenodd" d="M39.0968 15.6385C41.6976 17.0414 43.4645 19.7915 43.465 22.9534C43.465 27.1521 40.351 30.6231 36.3065 31.1832L36.2631 31.1892L36.2193 31.1957L36.1749 31.2008L36.1315 31.2058L36.0881 31.2109L36.0442 31.216L36.0004 31.2211L35.9574 31.2248L35.9135 31.2285L35.8697 31.2326L35.8267 31.2363L35.7829 31.2396L35.7399 31.2423L35.697 31.2451L35.6536 31.2479L35.6106 31.2502L35.5677 31.2525L35.5243 31.2539L35.4818 31.2557L35.4388 31.2571L35.3954 31.259L35.3525 31.2599L35.31 31.2603L35.267 31.2613L35.2245 31.2617L35.1816 31.2622L35.159 31.2626L35.1382 31.2622L35.0957 31.2617L35.0532 31.2613L35.0103 31.2603L34.9673 31.2599L34.9248 31.259L34.8823 31.2576L34.8394 31.2557L34.7969 31.2543L34.754 31.2525L34.7119 31.2506L34.6695 31.2479L34.627 31.2451L34.5849 31.2428L34.5425 31.24L34.5 31.2368L34.4579 31.2331L34.4159 31.2294L34.3734 31.2252L34.3314 31.2216L34.2894 31.2174L34.2474 31.2123L34.2053 31.2077L34.1638 31.2031L34.1218 31.198L34.0802 31.1925L34.0386 31.1869L33.9966 31.1814L33.955 31.1754L33.9135 31.1698L33.8719 31.1634L33.8299 31.1564L33.7888 31.1495L33.7472 31.1426L33.7061 31.1357L33.665 31.1283L33.6235 31.1204L33.5824 31.1126L33.5413 31.1047L33.4997 31.0969L33.4586 31.0885L33.4175 31.0793L33.3764 31.0705L33.3348 31.0618L33.2937 31.0525L33.2526 31.0428L33.212 31.0327L33.1709 31.023L33.1298 31.0128L33.0892 31.0027L33.0481 30.9916L33.007 30.9805L32.9663 30.9694L32.9257 30.9588L32.8846 30.9477L32.8439 30.9352L32.8028 30.9232L32.7627 30.9112L32.722 30.8997L32.6809 30.8872L32.6408 30.8738L32.6006 30.8604L32.5599 30.8475L32.5198 30.8341L32.4796 30.8207L32.4389 30.8064L32.3992 30.7925L32.3586 30.7782L32.3184 30.7639L32.2782 30.7491L32.2385 30.7339L32.1983 30.7186L32.1586 30.7039L32.1189 30.6886L32.0787 30.6725L32.039 30.6563L31.9993 30.6401L31.9596 30.624L31.9199 30.6078L31.8802 30.5903L31.8404 30.5732L31.8007 30.5556L31.761 30.5385L31.7213 30.5205L31.6816 30.5021L31.6423 30.4841L31.6026 30.4656L31.5634 30.4471L31.5241 30.4272L31.4844 30.4079L31.4451 30.3885L31.4054 30.3686L31.3662 30.3487L31.3269 30.3284L31.2881 30.3076L31.2484 30.2869L31.2096 30.2665L31.1708 30.2448L31.1316 30.2231L31.0928 30.2014L31.0545 30.1797L31.0152 30.1576L30.9769 30.1349L30.9381 30.1118L30.8988 30.0892L30.8605 30.0661L30.8222 30.0426L30.7838 30.0181L30.7455 29.9941L30.7072 29.9701L30.6689 29.9456L30.6305 29.9207L30.5922 29.8952L30.5539 29.8699L30.5155 29.8445L30.4772 29.8181L30.4389 29.7913L30.4005 29.7655L30.3627 29.7392L30.3243 29.7119L30.2865 29.6842L30.2486 29.657L30.2107 29.6293L30.1729 29.6011L30.1355 29.572L30.0971 29.5429L30.0597 29.5143L30.0219 29.4847L29.9845 29.4547L29.9471 29.4247L29.9096 29.3947L29.8722 29.3642L29.8353 29.3328L29.7984 29.3009L29.7609 29.2695L29.724 29.2376L29.6875 29.2053L29.6506 29.1725L29.6136 29.1397L29.5762 29.1065L29.5397 29.0728L29.5033 29.0391L29.4668 29.0044L29.4298 28.9707L29.3934 28.9352L29.3569 28.8996L29.3204 28.864L29.2844 28.8285L29.2479 28.7915L29.2114 28.7546L29.1754 28.7177L29.1389 28.6798L29.1029 28.6415L29.0673 28.6031L29.0313 28.5643L28.9957 28.5255L28.9602 28.4854L28.9246 28.4457L28.8891 28.4055L28.854 28.3644L28.8184 28.3223L28.7833 28.2808L28.7482 28.2392L28.7131 28.1954L28.6785 28.1519L28.6434 28.109L28.6087 28.0642L28.5741 28.0189L28.5395 27.9737L28.5048 27.9284L28.4707 27.8818L28.436 27.8347L28.4019 27.7876L28.3677 27.74L28.334 27.6911L28.2998 27.6412L28.2661 27.5922L28.2324 27.5414L28.1991 27.4902L28.1654 27.4394L28.1322 27.3867L28.0989 27.3332L28.0657 27.2796L28.0329 27.2251L28.0001 27.1697L27.9673 27.1143L27.9345 27.0575L27.9022 26.9993L27.8699 26.9411L27.838 26.882L27.8057 26.821L27.7738 26.7605L27.7419 26.6986L27.7101 26.6354L27.6787 26.5721L27.6477 26.507L27.6168 26.441L27.5863 26.3749L27.5558 26.3057L27.5254 26.2355L27.4949 26.1653L27.4653 26.0923L27.4353 26.0193L27.4062 25.9441L27.3771 25.8674L27.348 25.7898L27.3194 25.7095L27.2912 25.6287L27.2635 25.5441L27.2363 25.4592L27.209 25.3714L27.1818 25.2809L27.1559 25.1895L27.1301 25.0943L27.1042 24.9974L27.0797 24.8967L27.0557 24.7933L27.0322 24.6852L27.0095 24.5739L26.9874 24.458L26.9666 24.3365L26.9463 24.2118L26.9273 24.0775L26.9098 23.9375L26.8936 23.7911L26.8793 23.6304L26.8678 23.4586L26.8585 23.2702L26.8534 23.0601L26.8521 22.9553L26.8539 22.8204C26.8674 21.9202 27.0275 21.0282 27.3277 20.1794L27.4104 19.9563L27.488 19.7638L27.5614 19.5929L27.632 19.4386L27.7008 19.2955L27.7673 19.1625L27.832 19.0396L27.8962 18.9223L27.959 18.8111L28.0204 18.7076L28.0818 18.6065L28.1419 18.5095L28.201 18.4181L28.2601 18.3285L28.3178 18.244L28.3755 18.1608L28.4323 18.0819L28.4891 18.0047L28.545 17.9304L28.6014 17.8574L28.6568 17.7872L28.7117 17.7189L28.7667 17.6519L28.8212 17.5873L28.8752 17.5231L28.9292 17.4621L28.9828 17.4021L29.0364 17.3434L29.0895 17.2866L29.1421 17.2298L29.1948 17.1758L29.2474 17.1218L29.2996 17.0691L29.3513 17.0183L29.4035 16.9675L29.4557 16.9181L29.507 16.8706L29.5587 16.8225L29.6095 16.7768L29.6603 16.732L29.7115 16.6863L29.7619 16.6434L29.8127 16.6004L29.8635 16.5575L29.9133 16.5164L29.9632 16.4766L30.0136 16.436L30.0634 16.3972L30.1133 16.3589L30.1627 16.3205L30.2121 16.2836L30.2611 16.2476L30.3105 16.2116L30.3594 16.176L30.4084 16.1423L30.4573 16.1086L30.5063 16.0749L30.5548 16.0425L30.6037 16.0102L30.6522 15.9784L30.7007 15.9469L30.7492 15.9165L30.7972 15.8865L30.8453 15.8564L30.8933 15.8273L30.9409 15.7992L30.9884 15.7705L31.0364 15.7424L31.084 15.716L31.1311 15.6893L31.1787 15.6629L31.2263 15.6371L31.2734 15.6121L31.3209 15.5872L31.368 15.5623L31.4151 15.5387L31.4622 15.5152L31.5093 15.4921L31.556 15.4685L31.6031 15.4464L31.6497 15.4247L31.6964 15.4029L31.743 15.3808L31.7896 15.3605L31.8358 15.3401L31.8825 15.3198L31.9287 15.3L31.9748 15.2806L32.021 15.2621L32.0672 15.2432L32.1134 15.2242L32.1591 15.2062L32.2053 15.1887L32.251 15.1711L32.2967 15.1536L32.3429 15.1374L32.3886 15.1212L32.4343 15.1051L32.48 15.0889L32.5258 15.0741L32.571 15.0594L32.6167 15.0446L32.6625 15.0298L32.7077 15.0155L32.753 15.0026L32.7982 14.9892L32.8435 14.9758L32.8887 14.9624L32.934 14.9504L32.9788 14.9384L33.0236 14.9259L33.0688 14.9139L33.1136 14.9024L33.158 14.8913L33.2032 14.8806L33.2476 14.8696L33.2924 14.8589L33.3372 14.8492L33.3815 14.8395L33.4263 14.8298L33.4711 14.8197L33.5154 14.8109L33.5597 14.8026L33.6045 14.7943L33.6489 14.7855L33.6932 14.7772L33.7375 14.7698L33.7819 14.7629L33.8257 14.7555L33.8705 14.7486L33.9144 14.7416L33.9587 14.7352L34.0031 14.7292L34.0465 14.7227L34.0904 14.7167L34.1347 14.7112L34.1781 14.7061L34.2215 14.701L34.2658 14.6959L34.3092 14.6908L34.3527 14.6872L34.3961 14.683L34.4395 14.6793L34.4833 14.6751L34.5268 14.6714L34.5697 14.6687L34.6131 14.6659L34.6565 14.6631L34.6995 14.6604L34.7424 14.6576L34.7858 14.6562L34.8288 14.6544L34.8717 14.653L34.9147 14.6516L34.9576 14.6502L35.0006 14.6493L35.0435 14.6484L35.0865 14.6479L35.1289 14.6474L35.1631 14.647H35.1719L35.2144 14.6479L35.2569 14.6488L35.2998 14.6493L35.3428 14.6497L35.3852 14.6507L35.4282 14.6521L35.4707 14.6539L35.5136 14.6553L35.5561 14.6567L35.5986 14.6585L35.6411 14.6613L35.6831 14.6636L35.7256 14.6664L35.7681 14.6691L35.8106 14.6719L35.8526 14.6756L35.8946 14.6798L35.9366 14.6835L35.9787 14.6872L36.0216 14.6908L36.0632 14.6959L36.1047 14.7005L36.1472 14.7056L36.1888 14.7102L36.2303 14.7153L36.2724 14.7213L36.3139 14.7269L36.3555 14.7329L36.3971 14.7389L36.4386 14.7449L36.4802 14.7518L36.5222 14.7587L36.5633 14.7657L36.6044 14.7726L36.646 14.7795L36.6871 14.7874L36.7282 14.7952L36.7697 14.8035L36.8108 14.8114L36.8519 14.8197L36.893 14.8289L36.9341 14.8377L36.9752 14.8465L37.0168 14.8552L37.0579 14.8645L37.099 14.8746L37.1401 14.8848L37.1812 14.895L37.2223 14.9051L37.2634 14.9157L37.304 14.9268L37.3451 14.9379L37.3862 14.949L37.4269 14.9601L37.4675 14.9716L37.5086 14.9836L37.5493 14.9956L37.5899 15.0076L37.6305 15.0196L37.6707 15.033L37.7114 15.046L37.752 15.0594L37.7922 15.0723L37.8323 15.0857L37.8725 15.0995L37.9127 15.1139L37.9529 15.1277L37.9935 15.1425L38.0337 15.1568L38.0734 15.172L38.1136 15.1873L38.1533 15.2025L38.193 15.2173L38.2332 15.2335L38.2729 15.2496L38.3126 15.2658L38.3523 15.282L38.392 15.2981L38.4318 15.3152L38.4719 15.3328L38.5117 15.3498L38.5514 15.3674L38.5911 15.3849L38.6308 15.4029L38.6701 15.4214L38.7098 15.4399L38.7495 15.4584L38.7887 15.4773L38.8285 15.4972L38.8677 15.5165L38.9074 15.5364L38.9467 15.5558L38.9859 15.5761L39.0252 15.5964L39.0644 15.6172L39.1032 15.6375L39.0968 15.6385Z" fill="#454F56"/>
<path fill-rule="evenodd" clip-rule="evenodd" d="M32.9402 31.906C33.9479 28.0157 31.4098 24.3841 28.6611 24.7716C28.6611 24.7716 28.971 22.9151 31.008 22.2991C33.046 21.6835 33.7354 22.9447 33.7354 22.9447C33.7354 22.9447 32.5407 21.2023 33.0584 19.3532C33.5761 17.5042 35.2806 16.6983 35.2806 16.6983L35.2608 16.6868C35.2608 16.6868 36.9537 17.5176 37.4437 19.374C37.9351 21.2318 36.7164 22.9567 36.7164 22.9567C36.7164 22.9567 37.4248 21.7043 39.4516 22.3494C41.4794 22.9945 41.7634 24.8547 41.7634 24.8547C38.7118 24.1514 36.1622 27.976 37.3823 31.9263L32.9402 31.905V31.906Z" fill="white"/>
<path d="M21.9236 21.1027C19.7374 22.1676 17.215 22.8404 14.2443 22.8404C11.89 22.8404 10.04 22.1117 8.97556 20.7101C8.41493 19.9255 8.13462 18.6921 8.07874 17.9079C19.1209 18.1882 25.9034 15.6659 25.9034 8.7148C25.9034 3.61373 21.9236 0.474854 16.3746 0.474854C6.45319 0.474854 0.399414 9.16321 0.399414 17.5154C0.399414 24.69 4.43511 29.1279 12.2262 29.1279C15.3092 29.1279 19.289 28.5673 22.4838 26.9325L21.9231 21.1031L21.9236 21.1027ZM18.3363 8.65847C18.3363 11.2367 15.1974 12.0777 8.86288 12.0218C9.42351 9.49941 11.6097 6.36053 15.3651 6.36053C17.215 6.36053 18.3363 7.31323 18.3363 8.65847Z" fill="#454F56"/>
<path d="M102.902 0.865421L112.879 28.2753H121.399L131.601 0.865421H122.633L119.101 13.5895C118.485 15.9438 118.037 18.0177 117.588 20.2602H117.42C116.971 18.074 116.523 15.9442 115.85 13.5895L112.151 0.865421H102.902ZM72.5875 9.04903C72.5875 4.95699 72.6993 2.6586 72.8115 0.865421H65.4129L65.1326 4.17285H65.0204C63.6193 1.87446 61.265 0.249374 57.5096 0.249374C50.7271 0.249374 45.0654 5.85428 45.0654 14.7107C45.0654 22.5586 49.8862 28.0513 56.6687 28.0513C59.8076 28.0513 62.4422 26.7624 64.0677 24.5199H64.1799V26.2577C64.1799 31.368 61.0974 33.4978 57.0612 33.4978C53.8101 33.4978 50.8398 32.4329 49.1021 31.4238L47.4206 37.926C49.8867 39.2713 53.642 40 57.2857 40C61.3214 40 65.4134 39.2154 68.3842 36.6367C71.5231 33.8903 72.5884 29.5743 72.5884 24.2959V9.04949L72.5875 9.04903ZM64.0672 16.0555C64.0672 16.7842 64.0114 17.6811 63.7869 18.3534C63.2263 20.3152 61.489 21.7726 59.2465 21.7726C55.7155 21.7726 53.6975 18.5779 53.6975 14.4858C53.6975 9.49698 56.1635 6.6943 59.3024 6.6943C61.6566 6.6943 63.2822 8.20809 63.8987 10.4497C64.0101 10.9655 64.0664 11.4917 64.0668 12.0194V16.055L64.0672 16.0555ZM89.9185 0.000461549C81.0621 0.000461549 75.2323 5.66171 75.2323 14.574C75.2323 23.4305 81.3983 28.7085 89.4138 28.7085C96.7569 28.7085 103.876 24.1029 103.876 14.0693C103.876 5.77346 98.2702 0.000461549 89.9185 0.000461549ZM89.6382 6.11012C93.5058 6.11012 95.0755 10.258 95.0755 14.2937C95.0755 19.2821 93.0015 22.5896 89.6382 22.5896C85.9946 22.5896 84.0328 19.0582 84.0328 14.3496C84.0328 10.3139 85.6025 6.11012 89.6382 6.11012Z" fill="url(#paint0_linear_6334_693)"/>
<defs>
<linearGradient id="paint0_linear_6334_693" x1="88.3331" y1="39.9995" x2="88.3331" y2="0.000462521" gradientUnits="userSpaceOnUse">
<stop stop-color="#223E32"/>
<stop offset="1" stop-color="#00923F"/>
</linearGradient>
</defs>
</svg>
