<svg width="204" height="40" viewBox="0 0 204 40" fill="none" xmlns="http://www.w3.org/2000/svg">
<path d="M199.775 16.8251L196.025 26.3751H195.913L192 16.8251H188.463L194.325 30.1751L190.975 37.6001H194.413L203.45 16.8251H199.775ZM173.275 8.90008H170V30.9251H173.275V8.90008ZM160.95 8.90008H153.075V30.9251H156.375V22.5876H160.963C161.888 22.6192 162.81 22.4668 163.675 22.1393C164.541 21.8117 165.332 21.3154 166.005 20.6793C166.677 20.0432 167.216 19.2799 167.591 18.4337C167.965 17.5875 168.168 16.6753 168.188 15.7501C168.168 14.8232 167.965 13.9094 167.59 13.0617C167.214 12.214 166.674 11.4493 166.001 10.812C165.328 10.1747 164.534 9.67756 163.667 9.34935C162.8 9.02114 161.877 8.86842 160.95 8.90008ZM161.038 19.5126H156.375V12.0126H161.05C162.045 12.0126 162.999 12.4077 163.702 13.1109C164.405 13.8142 164.8 14.768 164.8 15.7626C164.8 16.7571 164.405 17.711 163.702 18.4142C162.999 19.1175 162.045 19.5126 161.05 19.5126H161.038ZM181.35 16.3501C180.151 16.2813 178.957 16.5639 177.916 17.1634C176.874 17.7629 176.031 18.6531 175.488 19.7251L178.413 20.9751C178.702 20.4451 179.141 20.0114 179.674 19.7271C180.207 19.4429 180.811 19.3205 181.413 19.3751C181.826 19.3337 182.243 19.3744 182.64 19.4947C183.037 19.6151 183.407 19.8128 183.728 20.0765C184.048 20.3402 184.314 20.6647 184.508 21.0313C184.703 21.3978 184.824 21.7993 184.863 22.2126V22.4376C183.815 21.8707 182.642 21.5743 181.45 21.5751C178.313 21.5751 175.113 23.3001 175.113 26.5751C175.113 29.5251 177.675 31.4251 180.575 31.4251C181.4 31.4775 182.224 31.3052 182.96 30.9266C183.695 30.548 184.314 29.9773 184.75 29.2751H184.875V30.9751H188.075V22.5001C188.075 18.5876 185.15 16.4126 181.375 16.4126L181.35 16.3501ZM180.963 28.4251C179.888 28.4251 178.388 27.8751 178.388 26.5501C178.388 24.8501 180.25 24.2001 181.875 24.2001C182.923 24.172 183.96 24.4268 184.875 24.9376C184.754 25.8935 184.292 26.7733 183.572 27.4144C182.853 28.0555 181.926 28.4146 180.963 28.4251ZM62.4377 31.4001C59.3272 31.4103 56.338 30.1946 54.1176 28.0163C51.8972 25.8381 50.6245 22.8727 50.5752 19.7626C50.6245 16.6525 51.8972 13.6871 54.1176 11.5088C56.338 9.33053 59.3272 8.11482 62.4377 8.12508C63.9198 8.1004 65.392 8.37183 66.7678 8.92347C68.1437 9.4751 69.3956 10.2958 70.4502 11.3376L68.1877 13.5751C66.6531 12.0714 64.5861 11.2356 62.4377 11.2501C60.1933 11.2501 58.0408 12.1417 56.4538 13.7287C54.8668 15.3157 53.9752 17.4682 53.9752 19.7126C53.9752 21.957 54.8668 24.1094 56.4538 25.6965C58.0408 27.2835 60.1933 28.1751 62.4377 28.1751C63.5299 28.2199 64.6194 28.035 65.6357 27.6324C66.652 27.2297 67.5725 26.6183 68.3377 25.8376C69.3551 24.7407 69.968 23.3298 70.0752 21.8376H62.4377V18.7501H73.1877C73.3049 19.4059 73.3594 20.0714 73.3502 20.7376C73.4582 23.5047 72.4648 26.2017 70.5877 28.2376C69.5279 29.3081 68.2543 30.1431 66.85 30.688C65.4456 31.233 63.9422 31.4756 62.4377 31.4001ZM89.9752 23.9001C90.0162 24.8999 89.8548 25.8978 89.5004 26.8337C89.1461 27.7695 88.6063 28.6241 87.9133 29.3461C87.2204 30.0681 86.3886 30.6425 85.4681 31.035C84.5475 31.4274 83.5572 31.6297 82.5564 31.6297C81.5557 31.6297 80.5654 31.4274 79.6448 31.035C78.7242 30.6425 77.8925 30.0681 77.1996 29.3461C76.5066 28.6241 75.9668 27.7695 75.6125 26.8337C75.2581 25.8978 75.0966 24.8999 75.1377 23.9001C75.0966 22.9002 75.2581 21.9024 75.6125 20.9665C75.9668 20.0306 76.5066 19.176 77.1996 18.454C77.8925 17.7321 78.7242 17.1576 79.6448 16.7652C80.5654 16.3728 81.5557 16.1705 82.5564 16.1705C83.5572 16.1705 84.5475 16.3728 85.4681 16.7652C86.3886 17.1576 87.2204 17.7321 87.9133 18.454C88.6063 19.176 89.1461 20.0306 89.5004 20.9665C89.8548 21.9024 90.0162 22.9002 89.9752 23.9001ZM86.7252 23.9001C86.7803 23.3194 86.7136 22.7336 86.5291 22.1803C86.3447 21.6269 86.0467 21.1182 85.6542 20.6867C85.2618 20.2552 84.7835 19.9104 84.25 19.6745C83.7166 19.4386 83.1397 19.3168 82.5564 19.3168C81.9732 19.3168 81.3963 19.4386 80.8629 19.6745C80.3294 19.9104 79.8511 20.2552 79.4586 20.6867C79.0662 21.1182 78.7682 21.6269 78.5838 22.1803C78.3993 22.7336 78.3326 23.3194 78.3877 23.9001C78.3326 24.4808 78.3993 25.0665 78.5838 25.6199C78.7682 26.1733 79.0662 26.682 79.4586 27.1135C79.8511 27.545 80.3294 27.8897 80.8629 28.1256C81.3963 28.3616 81.9732 28.4834 82.5564 28.4834C83.1397 28.4834 83.7166 28.3616 84.25 28.1256C84.7835 27.8897 85.2618 27.545 85.6542 27.1135C86.0467 26.682 86.3447 26.1733 86.5291 25.6199C86.7136 25.0665 86.7803 24.4808 86.7252 23.9001ZM106.6 23.9001C106.6 25.866 105.819 27.7514 104.429 29.1415C103.039 30.5316 101.154 31.3126 99.1877 31.3126C97.2218 31.3126 95.3364 30.5316 93.9463 29.1415C92.5561 27.7514 91.7752 25.866 91.7752 23.9001C91.7752 21.9342 92.5561 20.0488 93.9463 18.6587C95.3364 17.2685 97.2218 16.4876 99.1877 16.4876C101.154 16.4876 103.039 17.2685 104.429 18.6587C105.819 20.0488 106.6 21.9342 106.6 23.9001ZM103.363 23.9001C103.418 23.3194 103.351 22.7336 103.167 22.1803C102.982 21.6269 102.684 21.1182 102.292 20.6867C101.899 20.2552 101.421 19.9104 100.888 19.6745C100.354 19.4386 99.7772 19.3168 99.1939 19.3168C98.6107 19.3168 98.0338 19.4386 97.5004 19.6745C96.9669 19.9104 96.4886 20.2552 96.0961 20.6867C95.7037 21.1182 95.4057 21.6269 95.2213 22.1803C95.0368 22.7336 94.9701 23.3194 95.0252 23.9001C94.9701 24.4808 95.0368 25.0665 95.2213 25.6199C95.4057 26.1733 95.7037 26.682 96.0961 27.1135C96.4886 27.545 96.9669 27.8897 97.5004 28.1256C98.0338 28.3616 98.6107 28.4834 99.1939 28.4834C99.7772 28.4834 100.354 28.3616 100.888 28.1256C101.421 27.8897 101.899 27.545 102.292 27.1135C102.684 26.682 102.982 26.1733 103.167 25.6199C103.351 25.0665 103.418 24.4808 103.363 23.9001ZM122.825 16.8626V30.3251C122.825 35.8501 119.538 38.1251 115.663 38.1251C114.242 38.137 112.85 37.7279 111.662 36.9492C110.474 36.1705 109.543 35.0573 108.988 33.7501L111.825 32.5001C112.12 33.2632 112.632 33.9227 113.299 34.3963C113.966 34.8698 114.758 35.1363 115.575 35.1626C118.075 35.1626 119.6 33.6251 119.6 30.7626V29.6876H119.475C118.985 30.2347 118.383 30.6705 117.711 30.9659C117.038 31.2613 116.31 31.4093 115.575 31.4001C113.586 31.4001 111.678 30.6099 110.272 29.2034C108.865 27.7969 108.075 25.8892 108.075 23.9001C108.075 21.911 108.865 20.0033 110.272 18.5968C111.678 17.1903 113.586 16.4001 115.575 16.4001C116.315 16.3838 117.049 16.5247 117.73 16.8134C118.411 17.1022 119.023 17.5322 119.525 18.0751H119.65V16.8251H122.825V16.8626ZM119.913 23.9376C119.959 23.3719 119.89 22.8027 119.712 22.2638C119.534 21.725 119.249 21.2274 118.875 20.8007C118.501 20.374 118.044 20.0268 117.533 19.7798C117.022 19.5327 116.467 19.3909 115.9 19.3626C115.322 19.3817 114.754 19.5159 114.228 19.7573C113.703 19.9987 113.231 20.3424 112.84 20.7684C112.449 21.1944 112.147 21.6941 111.951 22.2382C111.755 22.7824 111.67 23.3601 111.7 23.9376C111.673 24.5112 111.761 25.0843 111.959 25.6234C112.157 26.1625 112.46 26.6567 112.851 27.0771C113.242 27.4974 113.714 27.8353 114.237 28.0711C114.761 28.3069 115.326 28.4357 115.9 28.4501C116.464 28.4282 117.017 28.2928 117.527 28.0519C118.037 27.8111 118.493 27.4697 118.867 27.0483C119.242 26.6269 119.528 26.1341 119.707 25.5996C119.887 25.0651 119.957 24.4998 119.913 23.9376ZM128.613 8.92508V30.9376H125.313V8.92508H128.613ZM141.613 26.3751L144.188 28.0751C143.5 29.101 142.57 29.9414 141.48 30.5214C140.389 31.1015 139.173 31.4033 137.938 31.4001C136.955 31.4141 135.98 31.2287 135.072 30.855C134.163 30.4813 133.339 29.9271 132.651 29.226C131.963 28.5248 131.424 27.6913 131.067 26.7758C130.71 25.8604 130.543 24.8821 130.575 23.9001C130.429 22.2119 130.909 20.5289 131.924 19.1718C132.939 17.8148 134.417 16.8787 136.078 16.5419C137.739 16.2051 139.465 16.4913 140.929 17.3457C142.392 18.2002 143.49 19.5632 144.013 21.1751L144.35 22.0376L134.35 26.1751C134.662 26.8755 135.176 27.4665 135.827 27.872C136.477 28.2775 137.234 28.4788 138 28.4501C138.729 28.4387 139.443 28.2422 140.075 27.8793C140.706 27.5163 141.236 26.9987 141.613 26.3751ZM133.725 23.6751L140.45 20.9001C140.19 20.3906 139.786 19.9687 139.288 19.6866C138.791 19.4044 138.221 19.2744 137.65 19.3126C137.104 19.3364 136.569 19.4688 136.075 19.702C135.581 19.9351 135.138 20.2644 134.773 20.6705C134.407 21.0767 134.126 21.5515 133.947 22.0674C133.767 22.5833 133.691 23.1298 133.725 23.6751Z" fill="#5F6368"/>
<path d="M17.5001 19.1001L0.725098 36.6751C0.913459 37.3427 1.25197 37.9584 1.71476 38.4751C2.17754 38.9919 2.75235 39.3959 3.39523 39.6565C4.03812 39.917 4.73206 40.0271 5.42401 39.9783C6.11597 39.9296 6.78761 39.7232 7.3876 39.3751L26.2626 28.6251L17.5001 19.1001Z" fill="#EA4335"/>
<path d="M34.4628 16.1125L26.3003 11.4375L17.1128 19.5L26.3378 28.6L34.4378 23.975C35.1554 23.5993 35.7565 23.0343 36.1759 22.3413C36.5953 21.6483 36.817 20.8538 36.817 20.0437C36.817 19.2337 36.5953 18.4392 36.1759 17.7462C35.7565 17.0532 35.1554 16.4882 34.4378 16.1125H34.4628Z" fill="#FBBC04"/>
<path d="M0.725245 3.32495C0.623843 3.69981 0.57339 4.08662 0.575245 4.47495V35.5249C0.576259 35.9131 0.626664 36.2995 0.725245 36.6749L18.0752 19.5499L0.725245 3.32495Z" fill="#4285F4"/>
<path d="M17.6251 20L26.3001 11.4375L7.4501 0.637509C6.74095 0.222184 5.93441 0.00221731 5.1126 8.94017e-06C4.12007 -0.00195794 3.15413 0.320669 2.36201 0.918709C1.56989 1.51675 0.995041 2.3574 0.725098 3.31251L17.6251 20Z" fill="#34A853"/>
</svg>
