<svg viewBox="0 0 70 70" fill="none" xmlns="http://www.w3.org/2000/svg">
<rect width="70" height="70" rx="35" fill="white" fill-opacity="0.88"/>
<path d="M35 42.6667V52.25" stroke="#1677FF" stroke-width="3.5" stroke-linecap="round" stroke-linejoin="round"/>
<path d="M42.6665 38.8333V52.25" stroke="#1677FF" stroke-width="3.5" stroke-linecap="round" stroke-linejoin="round"/>
<path d="M50.3335 31.1667V52.25" stroke="#1677FF" stroke-width="3.5" stroke-linecap="round" stroke-linejoin="round"/>
<path d="M54.1668 17.75L37.5953 34.3215C37.5063 34.4107 37.4006 34.4816 37.2841 34.5299C37.1677 34.5782 37.0429 34.603 36.9168 34.603C36.7908 34.603 36.666 34.5782 36.5495 34.5299C36.4331 34.4816 36.3273 34.4107 36.2383 34.3215L29.9287 28.0118C29.7489 27.8322 29.5052 27.7312 29.2511 27.7312C28.997 27.7312 28.7533 27.8322 28.5736 28.0118L15.8335 40.75" stroke="#1677FF" stroke-width="3.5" stroke-linecap="round" stroke-linejoin="round"/>
<path d="M19.6665 46.5V52.25" stroke="#1677FF" stroke-width="3.5" stroke-linecap="round" stroke-linejoin="round"/>
<path d="M27.3335 38.8333V52.25" stroke="#1677FF" stroke-width="3.5" stroke-linecap="round" stroke-linejoin="round"/>
</svg>
