<svg viewBox="0 0 71 70" fill="none" xmlns="http://www.w3.org/2000/svg">
<rect x="0.5" width="70" height="70" rx="35" fill="white" fill-opacity="0.88"/>
<path d="M50.8332 36.9167C50.8332 46.5 44.1248 51.2917 36.1515 54.0709C35.734 54.2124 35.2805 54.2056 34.8673 54.0517C26.8748 51.2917 20.1665 46.5 20.1665 36.9167V23.5C20.1665 22.9917 20.3684 22.5042 20.7279 22.1448C21.0873 21.7853 21.5748 21.5834 22.0832 21.5834C25.9165 21.5834 30.7082 19.2834 34.0432 16.37C34.4492 16.0231 34.9658 15.8325 35.4998 15.8325C36.0339 15.8325 36.5504 16.0231 36.9565 16.37C40.3107 19.3025 45.0832 21.5834 48.9165 21.5834C49.4248 21.5834 49.9123 21.7853 50.2718 22.1448C50.6312 22.5042 50.8332 22.9917 50.8332 23.5V36.9167Z" stroke="#1677FF" stroke-width="3.5" stroke-linecap="round" stroke-linejoin="round"/>
<path d="M29.75 35.0001L33.5833 38.8334L41.25 31.1667" stroke="#1677FF" stroke-width="3.5" stroke-linecap="round" stroke-linejoin="round"/>
</svg>
