<svg width="114" height="40" viewBox="0 0 114 40" fill="none" xmlns="http://www.w3.org/2000/svg">
<path fill-rule="evenodd" clip-rule="evenodd" d="M3.53683 19.9671L19.9786 3.52531L24.7944 8.34097H24.794C25.865 9.50663 26.5201 11.0599 26.5201 12.7612C26.5201 16.3646 23.5818 19.3025 19.9786 19.3028C15.3108 19.3029 11.1268 21.4378 8.35259 24.7823V24.7829L3.53683 19.9671ZM31.6048 15.1514L36.4206 19.9671L19.9786 36.409L15.163 31.5934H15.1635C14.0924 30.4278 13.4372 28.8745 13.4372 27.1731C13.4372 23.5699 16.3754 20.6317 19.9786 20.6316C24.6465 20.6314 28.8308 18.4967 31.6048 15.152L31.6048 15.1514ZM6.69176 6.68029H13.3007L19.9786 0.00219727L26.6567 6.68029H33.2657V13.2891L39.9437 19.9671L33.2657 26.6452V33.2542H26.6567L19.9786 39.9322L13.3007 33.2542H6.69176V26.6452L0.0136719 19.9671L6.69176 13.2891V6.68029ZM12.8143 8.34102H8.35256V12.8027L1.18804 19.9671L6.69176 25.4709L8.35257 27.1317V31.5933H12.8143L14.4749 33.2542L19.9786 38.7579L25.4824 33.2542L27.143 31.5933H31.6048V27.1317L33.2657 25.471L38.7693 19.9671L33.2657 14.4635L31.6048 12.8027V8.341H27.143L25.4824 6.68027L19.9786 1.17656L12.8143 8.34102Z" fill="#007A5C"/>
<path fill-rule="evenodd" clip-rule="evenodd" d="M61.1705 33.2544H57.8488L64.1601 20.6317H67.4819L73.7933 33.2544H70.4715L69.475 31.2614H62.1671L61.1705 33.2544ZM40.5757 20.6317H53.3644C55.1001 20.6317 56.5201 22.0518 56.5201 23.7874C56.5201 25.523 55.1001 26.9431 53.3644 26.9431C55.1001 26.9431 56.5201 28.363 56.5201 30.0987C56.5201 31.8344 55.1001 33.2543 53.3644 33.2543H40.5757V20.6317ZM40.5757 6.68042H43.8974V11.9952H53.1984V6.68042H56.5201V19.3031H53.1984V13.9883H43.8974V19.3031H40.5757V6.68042ZM70.4715 19.3031H73.7932L67.4819 6.68042H64.1601L57.8488 19.3031H61.1705L62.1671 17.31H69.4749L70.4715 19.3031ZM65.821 10.0022L68.4784 15.3169H63.1636L65.821 10.0022ZM75.1219 6.68044H78.4437V17.31H87.7446V19.3031H75.1219L75.1219 6.68044ZM92.3951 13.9883V19.303H89.0733V13.9883L82.7619 6.68044H86.0837L90.7341 11.9952L95.3845 6.68044H98.7063L92.3951 13.9883ZM99.703 6.68044H103.025V11.9952L110.333 6.68044H113.986L105.416 12.9918L113.986 19.3031H110.333L103.025 13.9883V19.3031H99.703V6.68044ZM98.1086 26.9431L106.679 20.6317H103.025L95.7169 25.9465V20.6317H92.3951V33.2544H95.7169V27.9396L103.025 33.2544H106.679L98.1086 26.9431ZM75.1219 20.6317H78.4437L87.7446 29.9327V20.6317H91.0663L91.0664 33.2544H87.7447L78.4437 23.9535V33.2544H75.1219V20.6317ZM43.8975 22.6248V25.9466H51.5375C52.451 25.9466 53.1984 25.1991 53.1984 24.2857C53.1984 23.3722 52.451 22.6248 51.5375 22.6248H43.8975ZM43.8975 27.9396V31.2614H51.5375C52.451 31.2614 53.1984 30.5139 53.1984 29.6005C53.1984 28.6869 52.451 27.9396 51.5375 27.9396H43.8975ZM68.4784 29.2683L65.821 23.9535L63.1636 29.2683H68.4784Z" fill="#007A5C"/>
<path fill-rule="evenodd" clip-rule="evenodd" d="M49.7433 0.0367412H50.2748V0.867221L51.4926 0.0367412H52.1348L50.6923 1.03327L51.8944 1.86375H52.1348L51.7864 2.39517H51.505L51.6111 2.0298H51.4926L50.2748 1.1994V2.0298H49.7433V0.0367412ZM74.8691 37.9047H75.4006V38.7352L76.6184 37.9047H77.2606L75.8182 38.9012L77.2606 39.8977H76.6184L75.4006 39.0673V39.8977H74.8691V37.9047ZM71.2076 37.9047H71.7383V38.7352H73.3335V37.9047H73.8642V38.7352H73.865V39.0673H73.8642V39.8977H73.3335V39.0673H71.7383V39.8977H71.2076V37.9047ZM69.2544 37.9047H68.7229L67.6599 39.8977H68.1914L68.3686 39.5656H69.6088L69.7859 39.8977H70.3174L69.2544 37.9047ZM68.5458 39.2334L68.9886 38.403L69.4315 39.2334H68.5458ZM64.492 37.9047H66.6179V38.2369H65.0226V38.7352H66.3023C66.6221 38.7352 66.8837 38.9966 66.8837 39.3165C66.8837 39.6363 66.6221 39.8977 66.3023 39.8977H64.492V37.9047ZM65.0226 39.0673V39.5656H66.1102C66.2473 39.5656 66.3594 39.4536 66.3594 39.3165C66.3594 39.1794 66.2473 39.0673 66.1102 39.0673L65.0226 39.0673ZM61.2898 37.9047H60.7575L59.1631 39.3662V37.9047H58.6324V39.8977H59.1631L60.7575 38.4362C60.7575 38.2943 60.7584 39.7093 60.7584 39.8977H61.2898V37.9047ZM59.4625 37.5725H60.459V37.9047H59.4625V37.5725ZM54.5533 37.9047H55.084V38.7352H56.3636C56.6835 38.7352 56.9449 38.9966 56.9449 39.3165C56.9449 39.6363 56.6835 39.8977 56.3636 39.8977H54.5533V37.9047ZM57.2093 37.9047H57.7421V39.8977H57.2093V37.9047ZM55.084 39.0673V39.5656H56.1715C56.3086 39.5656 56.4206 39.4536 56.4206 39.3165C56.4206 39.1794 56.3086 39.0673 56.1715 39.0673L55.084 39.0673ZM51.0057 37.9047H51.5363V38.7352H53.1316V37.9047H53.6623V38.7352H53.6631V39.0673H53.6623V39.8977H53.1316V39.0673H51.5363V39.8977H51.0057V37.9047ZM47.1923 39.5656H47.458V38.9012C47.458 38.3531 47.9065 37.9047 48.4546 37.9047H49.8497V39.5656H50.1154V39.8977H47.1923V39.5656ZM47.8899 39.5656H49.3182V38.2369H48.5542C48.1887 38.2369 47.8899 38.5357 47.8899 38.9012V39.5656ZM40.3628 39.8977H40.8935V39.0673H42.1732C42.493 39.0673 42.7545 38.8058 42.7545 38.486C42.7545 38.1662 42.493 37.9047 42.1732 37.9047H40.3628V39.8977ZM40.8935 38.7352V38.2369H41.981C42.1181 38.2369 42.2301 38.3489 42.2301 38.486C42.2301 38.6232 42.1181 38.7352 41.981 38.7352H40.8935ZM43.9769 37.9047H45.9699C46.1526 37.9047 46.3021 38.0542 46.3021 38.2369V39.5656C46.3021 39.7483 46.1526 39.8977 45.9699 39.8977H43.9769C43.7941 39.8977 43.6447 39.7483 43.6447 39.5656V38.2369C43.6447 38.0542 43.7941 37.9047 43.9769 37.9047ZM44.1762 38.2369H45.7706V39.5656H44.1762V38.2369ZM38.4096 37.9047H37.8781L36.8152 39.8977H37.3466L37.5238 39.5656H38.764L38.9411 39.8977H39.4725L38.4096 37.9047ZM37.701 39.2334L38.1438 38.403L38.5867 39.2334H37.701ZM33.2676 37.9047H33.7982V38.7352H35.3935V37.9047H35.9241V38.7352H35.925V39.0673H35.9241V39.8977H35.3935V39.0673H33.7982V39.8977H33.2676V37.9047ZM112.923 37.9047H112.392L111.329 39.8977H111.86L112.037 39.5656H113.278L113.455 39.8977H113.986L112.923 37.9047ZM79.9318 37.9047H80.4633V38.7352L81.6811 37.9047H82.3233L80.8809 38.9012L82.3233 39.8977H81.6811L80.4633 39.0673V39.8977H79.9318V37.9047ZM107.781 37.9047H108.312V38.7352H109.907V37.9047H110.438V38.7352H110.439V39.0673H110.438V39.8977H109.907V39.0673H108.312V39.8977H107.781V37.9047ZM105.828 37.9047H105.297L104.234 39.8977H104.765L104.942 39.5656H106.182L106.36 39.8977H106.891L105.828 37.9047ZM105.119 39.2334L105.562 38.403L106.005 39.2334H105.119ZM97.6242 37.9047H99.6173C99.8 37.9047 99.9494 38.0542 99.9494 38.2369V38.569H99.418V38.2369H97.8235V39.5656H99.418V39.2334H99.9494V39.5656C99.9494 39.7483 99.8 39.8977 99.6173 39.8977H97.6242C97.4416 39.8977 97.292 39.7483 97.292 39.5656V38.2369C97.292 38.0542 97.4416 37.9047 97.6242 37.9047ZM94.9194 39.0673L94.1886 39.8977H93.5907L94.4678 38.9012L93.5907 37.9047H94.1886L94.9194 38.7352L95.6502 37.9047H96.2481L95.371 38.9012L96.2481 39.8977H95.6502L94.9194 39.0673ZM91.6376 37.9047H91.1061L90.0431 39.8977H90.5746L90.7517 39.5656H91.9919L92.169 39.8977H92.7005L91.6376 37.9047ZM90.9289 39.2334L91.3718 38.403L91.8146 39.2334H90.9289ZM87.0934 37.9047C86.9107 37.9047 86.7612 38.0542 86.7612 38.2369V38.569H87.2927V38.2369H88.6213V38.7352H87.957V39.0673H88.6213V39.5656H87.2927V39.2334H86.7612V39.5656C86.7612 39.7483 86.9107 39.8977 87.0934 39.8977H88.8207C89.0034 39.8977 89.1528 39.7483 89.1528 39.5656V39.2334C89.1528 39.0535 89.0079 38.9058 88.8291 38.9012C89.0079 38.8967 89.1528 38.749 89.1528 38.569V38.2369C89.1528 38.0542 89.0034 37.9047 88.8207 37.9047H87.0934ZM84.808 37.9047H84.2765L83.2136 39.8977H83.7451L83.9221 39.5656H85.1624L85.3395 39.8977H85.871L84.808 37.9047ZM84.0994 39.2334L84.5423 38.403L84.9851 39.2334H84.0994ZM100.973 37.9047C101.858 37.9047 102.744 37.9047 103.63 37.9047V38.2369H102.567V39.8977H102.036V38.2369H100.973V37.9047ZM112.215 39.2334L112.658 38.403L113.1 39.2334H112.215ZM90.6646 0.0366219H91.1961V0.867102L92.414 0.0366219H93.0562L91.6137 1.03315L92.8158 1.86363H93.0562L92.7078 2.39505H92.4263L92.5325 2.02968H92.414L91.1961 1.19928V2.02968H90.6646L90.6646 0.0366219ZM83.2239 0.0366219H82.6924L81.6295 2.02968H82.161L82.9582 0.534924L83.7554 2.02968H84.2869L83.2239 0.0366219ZM85.8813 0.0366219H86.412V0.867102H87.6916C88.0115 0.867102 88.2729 1.12857 88.2729 1.44839C88.2729 1.76822 88.0115 2.02968 87.6916 2.02968H85.8813V0.0366219ZM88.5374 0.0366219H89.0702V2.02968H88.5374V0.0366219ZM86.412 1.19928V1.6975H87.4995C87.6367 1.6975 87.7487 1.58549 87.7487 1.44839C87.7487 1.31129 87.6367 1.19928 87.4995 1.19928L86.412 1.19928ZM78.9721 0.0366219H78.4406L77.3777 2.02968H77.9091L78.0863 1.6975H79.3264L79.5036 2.02968H80.035L78.9721 0.0366219ZM78.2635 1.36533L78.7064 0.534928L79.1492 1.36533H78.2635ZM74.4545 1.19928L73.7237 2.02968H73.1258L74.0029 1.03315L73.1258 0.0366211H73.7237L74.4545 0.867101L75.1853 0.0366211H75.7832L74.9061 1.03315L75.7832 2.02968H75.1853L74.4545 1.19928ZM113.456 0.0366249H113.986V2.02968H113.456V0.0366249ZM109.47 0.0366249H110.001V0.867105L111.219 0.0366249H111.861L110.419 1.03315L111.861 2.02968H111.219L110.001 1.19928V2.02968H109.47V0.0366249ZM105.218 0.0366249H105.748V0.867105H107.344V0.0366249H107.874V0.867105H107.875V1.19928H107.874V2.02968H107.344V1.19928H105.748V2.02968H105.218V0.0366249ZM102.56 0.0366249H102.029L100.966 2.02968H101.497L101.674 1.69751H102.915L103.092 2.02968H103.623L102.56 0.0366249ZM101.852 1.36533L102.295 0.534931L102.737 1.36533H101.852ZM96.9798 0.0366249H99.1057V0.368801H97.5105V0.867104H98.7902C99.11 0.867104 99.3714 1.12857 99.3714 1.44839C99.3714 1.76822 99.11 2.02968 98.7902 2.02968H96.9798V0.0366249ZM97.5105 1.19928V1.69751H98.598C98.7351 1.69751 98.8471 1.58549 98.8471 1.44839C98.8471 1.31129 98.7351 1.19928 98.598 1.19928L97.5105 1.19928ZM33.2677 0.0366249H33.7991V0.867105L35.017 0.0366249H35.6592L34.2167 1.03315L35.4188 1.86363H35.6591L35.3108 2.39505H35.0294L35.1355 2.02968H35.017L33.7991 1.19928V2.02968H33.2677L33.2677 0.0366249ZM66.4849 0.0366249H67.0156V0.867105H68.6108V0.0366249H69.1415V0.867105H69.1422V1.19928H69.1415V2.02968H68.6108V1.19928H67.0156V2.02968H66.4849V0.0366249ZM63.8275 0.0366249H63.296L62.233 2.02968H62.7645L62.9416 1.69751H64.1818L64.3589 2.02968H64.8904L63.8275 0.0366249ZM63.1189 1.36533L63.5617 0.534931L64.0046 1.36533H63.1189ZM54.0615 0.0366249H56.0546C56.2372 0.0366249 56.3868 0.186154 56.3868 0.368801V0.700977H55.8553V0.368801H54.2609V1.69751H55.8553V1.36533H56.3868V1.69751C56.3868 1.88023 56.2372 2.02968 56.0546 2.02968H54.0615C53.8788 2.02968 53.7294 1.88023 53.7294 1.69751V0.368801C53.7294 0.186154 53.8788 0.0366249 54.0615 0.0366249ZM47.086 0.0366249H46.5545L45.4916 2.02968H46.023L46.2001 1.69751H47.4403L47.6175 2.02968H48.149L47.086 0.0366249ZM46.3774 1.36533L46.8203 0.534931L47.2631 1.36533H46.3774ZM41.8376 0.0366249C41.6549 0.0366249 41.5054 0.186154 41.5054 0.368801V0.700977H42.0369V0.368801H43.3657V0.867104H42.7013V1.19928H43.3657V1.69751H42.0369V1.36533H41.5054V1.69751C41.5054 1.88023 41.6549 2.02968 41.8376 2.02968H43.5649C43.7476 2.02968 43.8971 1.88023 43.8971 1.69751V1.36533C43.8971 1.18546 43.7522 1.03771 43.5733 1.03315C43.7522 1.02868 43.8971 0.880923 43.8971 0.700978V0.368802C43.8971 0.186155 43.7476 0.0366257 43.5649 0.0366257L41.8376 0.0366249ZM38.848 0.0366249H38.3165L37.2536 2.02968H37.7851L37.9622 1.69751H39.2024L39.3795 2.02968H39.911L38.848 0.0366249ZM38.1395 1.36533L38.5823 0.534931L39.0251 1.36533H38.1395ZM57.9812 0.0366249C58.8662 0.0366249 59.7524 0.0366249 60.6386 0.0366249V0.368801H59.5756V2.02968H59.0442V0.368801H57.9812V0.0366249Z" fill="#2A2A29"/>
<path fill-rule="evenodd" clip-rule="evenodd" d="M1.18799 19.9671L8.3525 12.8027V8.34103H12.8141L19.9786 1.17651L27.1431 8.34103H31.6047V12.8027L38.7692 19.9671L31.6047 27.1316V31.5933H27.1431L19.9786 38.7577L12.8141 31.5933H8.3525V27.1316L1.18799 19.9671ZM8.3525 24.7823C11.1267 21.4377 15.3108 19.3029 19.9786 19.3028C23.5818 19.3027 26.52 16.3643 26.52 12.7612C26.52 11.0598 25.8649 9.50654 24.7938 8.34103H24.7943L19.9786 3.5253L15.1629 8.34103L8.3525 15.1514L3.53677 19.9671L8.3525 24.7828L8.3525 24.7823ZM31.6047 15.1513V15.1519C28.8305 18.4965 24.6465 20.6313 19.9786 20.6314C16.3754 20.6316 13.4372 23.5698 13.4372 27.173C13.4372 28.8745 14.0924 30.4276 15.1634 31.5932H15.1628L19.9786 36.4089L24.7943 31.5932L31.6047 24.7828L36.4205 19.9671L31.6047 15.1513Z" fill="#F9B101"/>
</svg>
