
<svg width="56" height="56" viewBox="0 0 56 56" fill="none" xmlns="http://www.w3.org/2000/svg">
<rect x="0.00012207" width="56" height="56" rx="28" fill="#1677FF"/>
<g clip-path="url(#clip0_6972_36083)">
<path d="M28.0001 14.8812C32.2751 14.8812 32.7814 14.9 34.4626 14.975C36.0251 15.0437 36.8689 15.3063 37.4314 15.525C38.1751 15.8125 38.7126 16.1625 39.2689 16.7188C39.8314 17.2812 40.1751 17.8125 40.4626 18.5563C40.6814 19.1188 40.9439 19.9688 41.0126 21.525C41.0876 23.2125 41.1064 23.7188 41.1064 27.9875C41.1064 32.2625 41.0876 32.7688 41.0126 34.45C40.9439 36.0125 40.6814 36.8563 40.4626 37.4188C40.1751 38.1625 39.8251 38.7 39.2689 39.2563C38.7064 39.8188 38.1751 40.1625 37.4314 40.45C36.8689 40.6688 36.0189 40.9313 34.4626 41C32.7751 41.075 32.2689 41.0938 28.0001 41.0938C23.7251 41.0938 23.2189 41.075 21.5376 41C19.9751 40.9313 19.1314 40.6688 18.5689 40.45C17.8251 40.1625 17.2876 39.8125 16.7314 39.2563C16.1689 38.6938 15.8251 38.1625 15.5376 37.4188C15.3189 36.8563 15.0564 36.0063 14.9876 34.45C14.9126 32.7625 14.8939 32.2563 14.8939 27.9875C14.8939 23.7125 14.9126 23.2063 14.9876 21.525C15.0564 19.9625 15.3189 19.1188 15.5376 18.5563C15.8251 17.8125 16.1751 17.275 16.7314 16.7188C17.2939 16.1562 17.8251 15.8125 18.5689 15.525C19.1314 15.3063 19.9814 15.0437 21.5376 14.975C23.2189 14.9 23.7251 14.8812 28.0001 14.8812ZM28.0001 12C23.6564 12 23.1126 12.0187 21.4064 12.0938C19.7064 12.1688 18.5376 12.4437 17.5251 12.8375C16.4689 13.25 15.5751 13.7938 14.6876 14.6875C13.7939 15.575 13.2501 16.4688 12.8376 17.5188C12.4439 18.5375 12.1689 19.7 12.0939 21.4C12.0189 23.1125 12.0001 23.6562 12.0001 28C12.0001 32.3438 12.0189 32.8875 12.0939 34.5938C12.1689 36.2938 12.4439 37.4625 12.8376 38.475C13.2501 39.5313 13.7939 40.425 14.6876 41.3125C15.5751 42.2 16.4689 42.75 17.5189 43.1562C18.5376 43.55 19.7001 43.825 21.4001 43.9C23.1064 43.975 23.6501 43.9937 27.9939 43.9937C32.3376 43.9937 32.8814 43.975 34.5876 43.9C36.2876 43.825 37.4564 43.55 38.4689 43.1562C39.5189 42.75 40.4126 42.2 41.3001 41.3125C42.1876 40.425 42.7376 39.5313 43.1439 38.4813C43.5376 37.4625 43.8126 36.3 43.8876 34.6C43.9626 32.8938 43.9814 32.35 43.9814 28.0063C43.9814 23.6625 43.9626 23.1188 43.8876 21.4125C43.8126 19.7125 43.5376 18.5438 43.1439 17.5312C42.7501 16.4688 42.2064 15.575 41.3126 14.6875C40.4251 13.8 39.5314 13.25 38.4814 12.8438C37.4626 12.45 36.3001 12.175 34.6001 12.1C32.8876 12.0188 32.3439 12 28.0001 12Z" fill="white"/>
<path d="M28.0001 19.7812C23.4626 19.7812 19.7814 23.4625 19.7814 28C19.7814 32.5375 23.4626 36.2188 28.0001 36.2188C32.5376 36.2188 36.2189 32.5375 36.2189 28C36.2189 23.4625 32.5376 19.7812 28.0001 19.7812ZM28.0001 33.3312C25.0564 33.3312 22.6689 30.9438 22.6689 28C22.6689 25.0563 25.0564 22.6687 28.0001 22.6687C30.9439 22.6687 33.3314 25.0563 33.3314 28C33.3314 30.9438 30.9439 33.3312 28.0001 33.3312Z" fill="white"/>
<path d="M38.4626 19.4559C38.4626 20.5184 37.6001 21.3746 36.5439 21.3746C35.4814 21.3746 34.6251 20.5121 34.6251 19.4559C34.6251 18.3934 35.4876 17.5371 36.5439 17.5371C37.6001 17.5371 38.4626 18.3996 38.4626 19.4559Z" fill="white"/>
</g>
<defs>
<clipPath id="clip0_6972_36083">
<rect width="32" height="32" fill="white" transform="translate(12.0001 12)"/>
</clipPath>
</defs>
</svg>
