<svg width="172" height="40" viewBox="0 0 172 40" fill="none" xmlns="http://www.w3.org/2000/svg">
<g clip-path="url(#clip0_6334_679)">
<path fill-rule="evenodd" clip-rule="evenodd" d="M20.8457 21.3957C24.3169 21.9315 24.7861 23.9855 25.0667 25.8971L25.1135 26.223L25.1454 26.4449L25.3144 27.5698C25.6451 29.7178 26.335 34.1765 26.335 36.5032C26.335 37.0846 26.2838 37.5309 26.1904 37.7761C26.0346 38.1541 25.5808 38.5167 24.9541 38.819C23.4379 39.1923 21.853 39.3941 20.2206 39.3941C20.0477 39.3941 19.8777 39.3857 19.707 39.3806C19.0472 39.1932 18.5514 38.8804 18.2888 38.4529C17.4961 37.1624 17.4483 34.2874 17.4324 30.9277L17.4306 30.538L17.4242 29.5309C17.3984 25.9742 17.3762 22.9075 18.6684 21.8071C19.1689 21.3838 19.8801 21.2437 20.8457 21.3957ZM13.2774 29.1393C14.0297 29.097 14.5134 32.797 14.6106 35.6027C14.6787 37.556 14.4737 38.3595 14.1461 38.648C13.7754 38.5243 13.411 38.3903 13.052 38.2449C12.8124 37.8096 12.6294 37.125 12.5131 36.2283C12.158 33.4102 12.4664 29.189 13.2774 29.1393ZM32.1362 34.6685C32.0893 34.9255 32.0231 35.124 31.9415 35.2915C31.2984 35.8077 30.6224 36.2815 29.915 36.7078C29.6897 36.7457 29.4895 36.7193 29.3917 36.554C28.4541 34.9066 28.1023 29.7386 29.0095 29.2887C30.1924 28.7174 32.3116 33.7751 32.1362 34.6685ZM19.9406 0.606201C30.5026 0.606201 39.0918 8.97059 39.3287 19.3787L39.3335 19.7384V19.9047C39.3141 24.6062 37.584 28.9075 34.7335 32.2367C34.6301 32.1849 34.4415 32.0151 34.0998 31.5039C33.7463 30.9901 30.6971 26.2975 30.6971 20.9191C30.6971 19.8635 32.2185 18.2147 33.5648 16.7674C34.5712 15.6783 35.5246 14.6511 35.8756 13.8437C36.3227 12.8018 36.0099 12.0744 35.5151 11.8278C35.0672 11.6087 34.3949 11.7685 33.923 12.6066C33.1487 13.9629 32.9006 14.2164 31.7711 15.1239C30.6597 16.0309 28.8928 16.944 28.8928 15.7621C28.8928 15.1239 29.8769 13.6786 30.3631 12.6655C30.8596 11.6411 30.3244 10.8995 29.2992 10.8995C27.286 10.8995 25.9497 13.464 25.9497 14.3525C25.9497 15.2403 26.3803 15.3667 26.3803 16.4005C26.3803 17.4421 24.1715 18.7931 22.0907 18.7931C20.0875 18.7931 18.9258 18.3877 18.4444 17.2454L18.383 17.085L18.2438 16.6734C17.7503 15.2308 17.3962 14.1846 16.7798 13.0913C16.4526 12.5131 15.9476 12.1123 15.5109 11.7596C14.9401 11.3162 14.644 10.908 14.5821 10.6036C14.5252 10.3015 14.4945 9.73231 15.4703 8.42014C16.444 7.11546 16.5804 6.12984 16.0932 5.62127C15.9166 5.44035 15.6155 5.32443 15.2288 5.32443C14.5449 5.32443 13.5946 5.6868 12.6153 6.68214C11.0929 8.24208 11.9572 9.72316 11.9572 10.3733C11.9572 11.0231 11.6783 11.3906 10.7647 12.2746C9.84442 13.1624 9.52681 13.9237 9.42156 16.983C9.38123 18.5594 9.10361 19.4668 8.85439 20.2714C8.63905 20.9766 8.441 21.6397 8.4303 22.5976C8.41324 23.6592 8.58995 24.3433 8.79615 25.1326C8.99861 25.8622 9.21364 26.6982 9.35141 28.0966C9.57054 30.2614 9.49436 32.09 9.09596 33.9589L8.98963 34.4272L8.96478 34.5617C8.88319 34.8902 8.78621 35.2891 8.65512 35.4386C3.74658 31.9521 0.545654 26.2583 0.545654 19.8221C0.545654 9.21036 9.22868 0.606201 19.9406 0.606201Z" fill="#F14635"/>
<path d="M113.404 13.9039C115.323 13.9039 116.815 14.5834 117.88 15.9424C118.945 17.3015 119.477 19.1696 119.477 21.5467V21.7679C119.477 24.0897 118.933 25.944 117.844 27.3307C116.755 28.7173 115.285 29.4107 113.433 29.4107C112.004 29.4107 110.828 28.9085 109.907 27.9042V35.4497H105.057V14.1804H109.591L109.735 15.5624C110.665 14.4567 111.889 13.9039 113.404 13.9039ZM79.586 13.9039C81.5719 13.9039 83.1405 14.3692 84.2919 15.2998C85.4432 16.2304 86.0332 17.5065 86.062 19.1281V25.7482C86.0812 27.1211 86.3018 28.1714 86.724 28.8993V29.1343L81.8741 29.1343C81.7015 28.8302 81.5479 28.3834 81.4136 27.7937C80.5214 28.8716 79.2741 29.4107 77.6719 29.4107C76.2039 29.4107 74.9568 28.9845 73.9301 28.1322C72.9035 27.28 72.3902 26.2088 72.3902 24.9189C72.3902 23.2973 73.0138 22.0719 74.2611 21.2427C75.5084 20.4134 77.3217 19.9988 79.701 19.9988H81.1977V19.211C81.1977 17.8382 80.5789 17.1518 79.3412 17.1518C78.19 17.1518 77.6143 17.6954 77.6143 18.7825H72.7644C72.7644 17.336 73.4048 16.1613 74.6857 15.2583C75.9665 14.3554 77.5999 13.9039 79.586 13.9039ZM95.3728 13.9039C97.4257 13.9039 99.0759 14.3508 100.323 15.2445C101.571 16.1383 102.194 17.313 102.194 18.7687L97.33 18.7687C97.33 17.571 96.6726 16.9721 95.3583 16.9721C94.8497 16.9721 94.4228 17.108 94.0775 17.3798C93.732 17.6516 93.5593 17.9902 93.5593 18.3956C93.5593 18.8103 93.7705 19.1465 94.1925 19.4045C94.6147 19.6625 95.2886 19.8744 96.2145 20.0402C97.1403 20.2062 97.9535 20.4042 98.654 20.6345C100.995 21.4085 102.165 22.7951 102.165 24.7945C102.165 26.1582 101.535 27.2685 100.273 28.1253C99.0112 28.9822 97.3778 29.4107 95.3728 29.4107C94.0391 29.4107 92.8494 29.1804 91.8037 28.7196C90.7579 28.2589 89.9423 27.6324 89.357 26.84C88.7718 26.0476 88.4792 25.2138 88.4792 24.3385H93.0125C93.0317 25.0294 93.2714 25.5339 93.732 25.8519C94.1925 26.1697 94.7825 26.3286 95.5021 26.3286C96.164 26.3286 96.6608 26.1996 96.9917 25.9417C97.3227 25.6836 97.488 25.3474 97.488 24.9327C97.488 24.5366 97.2724 24.2187 96.8405 23.9791C96.4088 23.7396 95.5884 23.4908 94.3797 23.2328C93.1708 22.9749 92.173 22.6362 91.3862 22.217C90.5996 21.7978 89.9999 21.2887 89.5873 20.6898C89.1748 20.0909 88.9685 19.4045 88.9685 18.6305C88.9685 17.2577 89.5586 16.1268 90.7386 15.2376C91.9187 14.3485 93.4634 13.9039 95.3728 13.9039ZM58.9349 7.87926V17.8842L65.7991 7.87926H72.0449L64.3748 17.9119L71.4554 29.1343H65.4686L61.0073 21.6435L58.9349 23.8271V29.1343H53.8835V7.87926H58.9349ZM127.32 14.1804V29.1343H122.456V14.1804H127.32ZM170.089 14.1804V16.6956L163.153 25.5408H170.247V29.1343H157.022V26.536L163.93 17.7737H155.792L159.033 14.1804H170.089ZM133.823 24.3105C135.15 24.3105 136.224 25.3468 136.224 26.6252C136.224 27.9035 135.15 28.9399 133.823 28.9399C132.497 28.9399 131.422 27.9035 131.422 26.6252C131.422 25.3468 132.497 24.3105 133.823 24.3105ZM145.086 7.87866V19.047L145.576 18.4311L149.241 14.1061H155.07L149.602 20.1967L155.432 28.9151L149.862 28.9151L146.457 23.3994L145.086 24.6996V28.9151H140.223V7.87866L145.086 7.87866ZM81.1977 22.4865H79.7874C78.0988 22.4865 77.2546 23.2144 77.2546 24.6702C77.2546 25.0941 77.4032 25.4372 77.7006 25.6999C77.9981 25.9624 78.377 26.0937 78.8376 26.0937C79.442 26.0937 79.9433 25.9693 80.3415 25.7206C80.7397 25.4718 81.025 25.1908 81.1977 24.8775V22.4865ZM112.21 17.4973C111.059 17.4973 110.291 17.8935 109.907 18.6858V24.5735C110.329 25.4027 111.107 25.8173 112.239 25.8173C113.783 25.8173 114.58 24.5366 114.628 21.9751V21.4776C114.628 18.8241 113.822 17.4973 112.21 17.4973ZM124.954 7.87866C126.28 7.87866 127.355 8.96429 127.355 10.3035C127.355 11.6427 126.28 12.7284 124.954 12.7284C123.628 12.7284 122.553 11.6427 122.553 10.3035C122.553 8.96429 123.628 7.87866 124.954 7.87866Z" fill="black"/>
</g>
<defs>
<clipPath id="clip0_6334_679">
<rect width="170.909" height="40" fill="white" transform="translate(0.54541)"/>
</clipPath>
</defs>
</svg>
