<svg width="56" height="56" viewBox="0 0 56 56" fill="none" xmlns="http://www.w3.org/2000/svg">
<rect x="0.00012207" width="56" height="56" rx="28" fill="#1677FF"/>
<g clip-path="url(#clip0_6972_36081)">
<path d="M41.6314 12H14.3626C13.0564 12 12.0001 13.0313 12.0001 14.3063V41.6875C12.0001 42.9625 13.0564 44 14.3626 44H41.6314C42.9376 44 44.0001 42.9625 44.0001 41.6938V14.3063C44.0001 13.0313 42.9376 12 41.6314 12ZM21.4939 39.2687H16.7439V23.9937H21.4939V39.2687ZM19.1189 21.9125C17.5939 21.9125 16.3626 20.6812 16.3626 19.1625C16.3626 17.6438 17.5939 16.4125 19.1189 16.4125C20.6376 16.4125 21.8689 17.6438 21.8689 19.1625C21.8689 20.675 20.6376 21.9125 19.1189 21.9125ZM39.2689 39.2687H34.5251V31.8438C34.5251 30.075 34.4939 27.7937 32.0564 27.7937C29.5876 27.7937 29.2126 29.725 29.2126 31.7188V39.2687H24.4751V23.9937H29.0251V26.0813H29.0876C29.7189 24.8813 31.2689 23.6125 33.5751 23.6125C38.3814 23.6125 39.2689 26.775 39.2689 30.8875V39.2687V39.2687Z" fill="white"/>
</g>
<defs>
<clipPath id="clip0_6972_36081">
<rect width="32" height="32" fill="white" transform="translate(12.0001 12)"/>
</clipPath>
</defs>
</svg>
