<svg viewBox="0 0 71 70" fill="none" xmlns="http://www.w3.org/2000/svg">
<rect x="0.5" width="70" height="70" rx="35" fill="white" fill-opacity="0.88"/>
<path d="M46.9995 21.583C48.0162 21.583 48.9912 21.9869 49.7101 22.7058C50.429 23.4247 50.8329 24.3997 50.8329 25.4163V41.7578C50.8326 42.3547 50.9717 42.9435 51.2392 43.4771L53.2862 47.5538C53.434 47.8471 53.5039 48.1733 53.4894 48.5014C53.4748 48.8294 53.3762 49.1482 53.2031 49.4272C53.0299 49.7061 52.788 49.936 52.5005 50.0946C52.213 50.2532 51.8895 50.3353 51.5612 50.333H19.4379C19.1095 50.3353 18.7861 50.2532 18.4986 50.0946C18.2111 49.936 17.9692 49.7061 17.796 49.4272C17.6228 49.1482 17.5243 48.8294 17.5097 48.5014C17.4951 48.1733 17.5651 47.8471 17.7129 47.5538L19.7599 43.4771C20.0273 42.9435 20.1665 42.3547 20.1662 41.7578V25.4163C20.1662 24.3997 20.5701 23.4247 21.289 22.7058C22.0078 21.9869 22.9829 21.583 23.9995 21.583H46.9995Z" stroke="#1677FF" stroke-width="3.5" stroke-linecap="round" stroke-linejoin="round"/>
<path d="M50.9364 42.6416H20.0627" stroke="#1677FF" stroke-width="3.5" stroke-linecap="round" stroke-linejoin="round"/>
</svg>
