<svg viewBox="0 0 70 70" fill="none" xmlns="http://www.w3.org/2000/svg">
<rect width="70" height="70" rx="35" fill="white" fill-opacity="0.88"/>
<path d="M35.0002 54.1668C45.5856 54.1668 54.1668 45.5856 54.1668 35.0002C54.1668 24.4147 45.5856 15.8335 35.0002 15.8335C24.4147 15.8335 15.8335 24.4147 15.8335 35.0002C15.8335 45.5856 24.4147 54.1668 35.0002 54.1668Z" stroke="#1677FF" stroke-width="3.5" stroke-linecap="round" stroke-linejoin="round"/>
<path d="M29.4224 29.2501C29.873 27.9691 30.7624 26.889 31.9331 26.201C33.1038 25.5129 34.4802 25.2614 35.8186 25.491C37.157 25.7205 38.3709 26.4164 39.2454 27.4552C40.1199 28.4941 40.5986 29.8089 40.5965 31.1668C40.5965 35.0001 34.8465 36.9168 34.8465 36.9168" stroke="#1677FF" stroke-width="3.5" stroke-linecap="round" stroke-linejoin="round"/>
<path d="M35 44.5835H35.0192" stroke="#1677FF" stroke-width="3.5" stroke-linecap="round" stroke-linejoin="round"/>
</svg>
