<svg viewBox="0 0 70 70" fill="none" xmlns="http://www.w3.org/2000/svg">
<rect width="70" height="70" rx="35" fill="white" fill-opacity="0.88"/>
<path d="M20.6248 43.6249C17.7498 46.0399 16.7915 53.2082 16.7915 53.2082C16.7915 53.2082 23.9598 52.2499 26.3748 49.3749C27.7357 47.7649 27.7165 45.2924 26.2023 43.7974C25.4573 43.0863 24.476 42.6754 23.4466 42.6436C22.4172 42.6118 21.4124 42.9612 20.6248 43.6249Z" stroke="#1677FF" stroke-width="3.5" stroke-linecap="round" stroke-linejoin="round"/>
<path d="M35 40.7497L29.25 34.9997C30.2699 32.3536 31.5542 29.8171 33.0833 27.4288C35.3166 23.8581 38.4263 20.918 42.1166 18.8883C45.8069 16.8587 49.9551 15.8069 54.1667 15.833C54.1667 21.0463 52.6717 30.208 42.6667 36.9163C40.2457 38.4472 37.6773 39.7314 35 40.7497Z" stroke="#1677FF" stroke-width="3.5" stroke-linecap="round" stroke-linejoin="round"/>
<path d="M29.2498 35.0002H19.6665C19.6665 35.0002 20.7207 29.1927 23.4998 27.3336C26.6048 25.2636 33.0832 27.3336 33.0832 27.3336" stroke="#1677FF" stroke-width="3.5" stroke-linecap="round" stroke-linejoin="round"/>
<path d="M35 40.7498V50.3332C35 50.3332 40.8075 49.279 42.6667 46.4998C44.7367 43.3948 42.6667 36.9165 42.6667 36.9165" stroke="#1677FF" stroke-width="3.5" stroke-linecap="round" stroke-linejoin="round"/>
</svg>
