<svg width="56" height="56" viewBox="0 0 56 56" fill="none" xmlns="http://www.w3.org/2000/svg">
<rect width="56" height="56" rx="28" fill="#1677FF"/>
<path d="M32.9149 32.0001C32.1735 35.5066 30.4719 38.738 28.0003 41.3334C24.5766 37.7385 22.6669 32.9644 22.6669 28.0001C22.6669 23.0357 24.5766 18.2616 28.0003 14.6667C25.5361 14.6674 23.1203 15.3509 21.0211 16.6414C18.9218 17.9319 17.2213 19.7789 16.1082 21.9773C14.9951 24.1758 14.513 26.6397 14.7155 29.0955C14.918 31.5514 15.797 33.9031 17.2551 35.8896C18.7132 37.8761 20.6933 39.4197 22.9755 40.3489C25.2577 41.2782 27.7528 41.5569 30.1838 41.154C32.6149 40.7511 34.8867 39.6823 36.7471 38.0665C38.6075 36.4506 39.9837 34.3508 40.7229 32.0001" stroke="white" stroke-width="2" stroke-linecap="round" stroke-linejoin="round"/>
<path d="M14.6665 28H25.9998" stroke="white" stroke-width="2" stroke-linecap="round" stroke-linejoin="round"/>
<path d="M38.6668 20.0001V17.3334C38.6668 16.6262 38.3859 15.9479 37.8858 15.4478C37.3857 14.9477 36.7074 14.6667 36.0002 14.6667C35.2929 14.6667 34.6146 14.9477 34.1145 15.4478C33.6144 15.9479 33.3335 16.6262 33.3335 17.3334V20.0001" stroke="white" stroke-width="2" stroke-linecap="round" stroke-linejoin="round"/>
<path d="M39.9998 20H31.9998C31.2635 20 30.6665 20.597 30.6665 21.3333V25.3333C30.6665 26.0697 31.2635 26.6667 31.9998 26.6667H39.9998C40.7362 26.6667 41.3332 26.0697 41.3332 25.3333V21.3333C41.3332 20.597 40.7362 20 39.9998 20Z" stroke="white" stroke-width="2" stroke-linecap="round" stroke-linejoin="round"/>
</svg>
