<svg width="56" height="56" viewBox="0 0 56 56" fill="none" xmlns="http://www.w3.org/2000/svg">
<rect width="56.0001" height="56" rx="28" fill="#1677FF"/>
<path d="M12 44L14.2493 35.7827C12.8613 33.3773 12.132 30.6507 12.1333 27.8547C12.1373 19.1133 19.2507 12 27.9907 12C32.232 12.0013 36.2133 13.6533 39.208 16.6507C42.2013 19.648 43.8493 23.632 43.848 27.8693C43.844 36.612 36.7307 43.7253 27.9907 43.7253C25.3373 43.724 22.7227 43.0587 20.4067 41.7947L12 44ZM20.796 38.924C23.0307 40.2507 25.164 41.0453 27.9853 41.0467C35.2493 41.0467 41.1667 35.1347 41.1707 27.8667C41.1733 20.584 35.284 14.68 27.996 14.6773C20.7267 14.6773 14.8133 20.5893 14.8107 27.856C14.8093 30.8227 15.6787 33.044 17.1387 35.368L15.8067 40.232L20.796 38.924ZM35.9787 31.6387C35.88 31.4733 35.616 31.3747 35.2187 31.176C34.8227 30.9773 32.8747 30.0187 32.5107 29.8867C32.148 29.7547 31.884 29.688 31.6187 30.0853C31.3547 30.4813 30.5947 31.3747 30.364 31.6387C30.1333 31.9027 29.9013 31.936 29.5053 31.7373C29.1093 31.5387 27.832 31.1213 26.3187 29.7707C25.1413 28.72 24.3453 27.4227 24.1147 27.0253C23.884 26.6293 24.0907 26.4147 24.288 26.2173C24.4667 26.04 24.684 25.7547 24.8827 25.5227C25.084 25.2933 25.1493 25.128 25.2827 24.8627C25.4147 24.5987 25.3493 24.3667 25.2493 24.168C25.1493 23.9707 24.3573 22.02 24.028 21.2267C23.7053 20.4547 23.3787 20.5587 23.136 20.5467L22.376 20.5333C22.112 20.5333 21.6827 20.632 21.32 21.0293C20.9573 21.4267 19.9333 22.384 19.9333 24.3347C19.9333 26.2853 21.3533 28.1693 21.5507 28.4333C21.7493 28.6973 24.344 32.7 28.3187 34.416C29.264 34.824 30.0027 35.068 30.5773 35.2507C31.5267 35.552 32.3907 35.5093 33.0733 35.408C33.8347 35.2947 35.4173 34.4493 35.748 33.524C36.0787 32.5973 36.0787 31.804 35.9787 31.6387Z" fill="white"/>
</svg>
