<svg width="71" height="71" viewBox="0 0 71 71" fill="none" xmlns="http://www.w3.org/2000/svg">
    <rect x="0.5" y="0.5" width="70" height="70" rx="35" fill="white" />
    <path
        d="M30 24.25C30.9583 25.2083 32.8813 25.0402 35.75 22.6713M35.75 22.6713C35.3257 22.3209 34.8848 21.9228 34.4294 21.4714C30.0102 17.0924 23.9916 17.9498 21.1718 21.4714C19.2242 23.9038 14.2403 29.9589 26.4391 51.5426C26.9442 52.4361 27.9503 53 29.034 53C30.7628 53 32.1141 51.6202 32.1702 50.0098C32.2895 46.5943 32.9511 42.6567 35.75 42.6567C38.5489 42.6567 39.2105 46.5943 39.3298 50.0098C39.3859 51.6202 40.7372 53 42.466 53C43.5497 53 44.5557 52.4361 45.0608 51.5426C57.2598 29.9589 52.2759 23.9038 50.3282 21.4714C47.5084 17.9498 41.4898 17.0924 37.0706 21.4714C36.6152 21.9228 36.1744 22.3209 35.75 22.6713Z"
        stroke="#1677FF" stroke-width="3.5" stroke-linecap="round" stroke-linejoin="round" />
</svg>