<svg width="17" height="17" viewBox="0 0 17 17" fill="none" xmlns="http://www.w3.org/2000/svg">
<g clip-path="url(#clip0_21_390)">
<path fill-rule="evenodd" clip-rule="evenodd" d="M16.5 8.75C16.5 13.1683 12.9183 16.75 8.5 16.75C4.08172 16.75 0.5 13.1683 0.5 8.75C0.5 4.33172 4.08172 0.75 8.5 0.75C12.9183 0.75 16.5 4.33172 16.5 8.75ZM8.78668 6.65595C8.00857 6.9796 6.45342 7.64946 4.12126 8.66555C3.74256 8.81615 3.54417 8.96348 3.52611 9.10754C3.49559 9.351 3.80047 9.44687 4.21565 9.57741C4.27212 9.59517 4.33064 9.61357 4.39062 9.63307C4.79909 9.76585 5.34855 9.92118 5.63419 9.92735C5.8933 9.93295 6.18249 9.82613 6.50176 9.60689C8.68077 8.136 9.80559 7.39254 9.87621 7.37651C9.92603 7.3652 9.99507 7.35099 10.0418 7.39256C10.0886 7.43414 10.084 7.51288 10.0791 7.534C10.0489 7.66276 8.85208 8.7754 8.23275 9.35119C8.03967 9.53069 7.90272 9.65801 7.87472 9.68709C7.812 9.75223 7.74809 9.81385 7.68665 9.87307C7.30718 10.2389 7.02261 10.5132 7.70241 10.9612C8.02909 11.1765 8.29051 11.3545 8.55131 11.5321C8.83612 11.7261 9.12019 11.9195 9.48774 12.1604C9.58139 12.2218 9.67082 12.2856 9.75793 12.3477C10.0894 12.584 10.3872 12.7963 10.7551 12.7624C10.9688 12.7428 11.1896 12.5417 11.3018 11.9422C11.5668 10.5254 12.0878 7.45564 12.2081 6.19065C12.2187 6.07982 12.2054 5.93798 12.1948 5.87572C12.1841 5.81345 12.1618 5.72474 12.0809 5.65907C11.9851 5.58129 11.8371 5.56489 11.7709 5.56606C11.47 5.57136 11.0084 5.73188 8.78668 6.65595Z" fill="#EBEBF5" fill-opacity="0.6"/>
</g>
<defs>
<clipPath id="clip0_21_390">
<rect width="16" height="16" fill="white" transform="translate(0.5 0.75)"/>
</clipPath>
</defs>
</svg>
